<?xml version="1.0" standalone="no"?>
<!DOCTYPE svg PUBLIC "-//W3C//DTD SVG 1.1//EN" "http://www.w3.org/Graphics/SVG/1.1/DTD/svg11.dtd" >
<svg xmlns="http://www.w3.org/2000/svg" xmlns:xlink="http://www.w3.org/1999/xlink" version="1.1">
<metadata>
Created by FontForge 20170731 at Fri Sep 12 16:34:36 2008
 By Aleksey,,,
Copyright (C) 2005, 2008 Hoefler &#38; Frere-Jones. http://www.typography.com
</metadata>
<defs>
<font id="GothamCondensed-BlackItalic" horiz-adv-x="500" >
  <font-face 
    font-family="Gotham Condensed Black"
    font-weight="450"
    font-style="italic"
    font-stretch="condensed"
    units-per-em="1000"
    panose-1="0 0 0 0 0 0 0 0 0 0"
    ascent="800"
    descent="-200"
    x-height="541"
    cap-height="700"
    bbox="-103 -223 814 944"
    underline-thickness="50"
    underline-position="-200"
    slope="-12"
    unicode-range="U+0020-FB04"
  />
<missing-glyph 
d="M0 -200v1000h500v-1000h-500zM50 -76l172 376l-172 376v-752zM71 -150h358l-179 390zM250 360l179 390h-358zM450 -76v752l-172 -376z" />
    <glyph glyph-name="f_f" unicode="ff" 
d="M-11 0l82 424h-31l23 117h31l8 38q12 63 46 95q38 38 103 38q44 0 80 -12l-22 -111q-13 4 -28 4q-34 0 -41 -39l-3 -14h63l-23 -116h-61l-82 -424h-145zM238 0l82 424h-31l23 117h31l8 38q12 63 46 95q38 38 103 38q44 0 80 -12l-22 -111q-13 4 -28 4q-34 0 -41 -39
l-3 -14h63l-23 -116h-61l-82 -424h-145z" />
    <glyph glyph-name="fi" unicode="fi" horiz-adv-x="453" 
d="M-11 0l82 424h-31l23 117h31l8 38q12 63 46 95q38 38 103 38q44 0 80 -12l-22 -111q-13 4 -28 4q-34 0 -41 -39l-3 -14h63l-23 -116h-61l-82 -424h-145zM227 0l105 541h145l-105 -541h-145zM339 582l25 128h147l-25 -128h-147z" />
    <glyph glyph-name="fl" unicode="fl" horiz-adv-x="453" 
d="M-11 0l82 424h-31l23 117h31l8 38q12 63 46 95q38 38 103 38q44 0 80 -12l-22 -111q-13 4 -28 4q-34 0 -41 -39l-3 -14h63l-23 -116h-61l-82 -424h-145zM228 0l138 710h145l-138 -710h-145z" />
    <glyph glyph-name="f_f_i" unicode="ffi" horiz-adv-x="702" 
d="M-11 0l82 424h-31l23 117h31l8 38q12 63 46 95q38 38 103 38q44 0 80 -12l-22 -111q-13 4 -28 4q-34 0 -41 -39l-3 -14h63l-23 -116h-61l-82 -424h-145zM238 0l82 424h-31l23 117h31l8 38q12 63 46 95q38 38 103 38q44 0 80 -12l-22 -111q-13 4 -28 4q-34 0 -41 -39
l-3 -14h63l-23 -116h-61l-82 -424h-145zM477 0l105 541h145l-105 -541h-145zM589 582l25 128h147l-25 -128h-147z" />
    <glyph glyph-name="f_f_l" unicode="ffl" horiz-adv-x="703" 
d="M-11 0l82 424h-31l23 117h31l8 38q12 63 46 95q38 38 103 38q44 0 80 -12l-22 -111q-13 4 -28 4q-34 0 -41 -39l-3 -14h63l-23 -116h-61l-82 -424h-145zM238 0l82 424h-31l23 117h31l8 38q12 63 46 95q38 38 103 38q44 0 80 -12l-22 -111q-13 4 -28 4q-34 0 -41 -39
l-3 -14h63l-23 -116h-61l-82 -424h-145zM477 0l138 710h145l-138 -710h-145z" />
    <glyph glyph-name=".notdef" 
d="M0 -200v1000h500v-1000h-500zM50 -76l172 376l-172 376v-752zM71 -150h358l-179 390zM250 360l179 390h-358zM450 -76v752l-172 -376z" />
    <glyph glyph-name=".null" horiz-adv-x="0" 
 />
    <glyph glyph-name="nonmarkingreturn" horiz-adv-x="333" 
 />
    <glyph glyph-name="space" unicode=" " horiz-adv-x="150" 
 />
    <glyph glyph-name="exclam" unicode="!" horiz-adv-x="226" 
d="M70 224l35 460l3 16h177l-3 -16l-144 -460h-68zM-19 0l31 159h159l-31 -159h-159z" />
    <glyph glyph-name="quotedbl" unicode="&#x22;" horiz-adv-x="360" 
d="M53 380l63 320h142l-1 -9l-145 -311h-59zM228 380l63 320h142l-1 -9l-145 -311h-59z" />
    <glyph glyph-name="numbersign" unicode="#" horiz-adv-x="404" 
d="M9 0l35 150h-48l21 131h57l33 142h-53l23 131h60l34 146h96l-34 -146h63l34 146h96l-34 -146h50l-23 -131h-57l-33 -142h53l-22 -131h-61l-35 -150h-96l34 150h-62l-35 -150h-96zM167 278h67l35 148h-68z" />
    <glyph glyph-name="dollar" unicode="$" horiz-adv-x="371" 
d="M233 774h104l-15 -78q42 -8 82 -33l-29 -151q-60 47 -112 47q-24 0 -38 -15t-14 -36q0 -36 51 -102q46 -63 64.5 -103t18.5 -89q0 -80 -43 -137t-115 -74l-21 -110h-104l21 110q-55 12 -99 44l29 151q71 -56 125 -56q24 0 40 15.5t16 40.5q0 31 -53 102q-81 107 -81 191
q0 81 44 136t114 70z" />
    <glyph glyph-name="percent" unicode="%" horiz-adv-x="581" 
d="M36 0l237 357l221 343h82l-237 -357l-220 -343h-83zM158 316q-47 0 -73 31t-26 89q0 61 19 132.5t53 105.5q32 32 75 32q47 0 72.5 -30.5t25.5 -88.5q0 -62 -18.5 -133.5t-52.5 -105.5q-33 -32 -75 -32zM165 403q7 0 13 6q14 15 27.5 83.5t13.5 98.5q0 29 -20 29
q-6 0 -13 -7q-14 -14 -27.5 -83t-13.5 -99q0 -28 20 -28zM407 -6q-47 0 -73 30.5t-26 88.5q0 62 19 133.5t53 105.5q32 32 75 32q47 0 73 -31t26 -89q0 -61 -19 -132.5t-53 -105.5q-32 -32 -75 -32zM414 80q6 0 13 7q14 14 27.5 83t13.5 99q0 28 -20 28q-7 0 -13 -6
q-14 -15 -27.5 -83.5t-13.5 -98.5q0 -29 20 -29z" />
    <glyph glyph-name="ampersand" unicode="&#x26;" horiz-adv-x="464" 
d="M354 331l107 -30q-25 -105 -81 -182l35 -89l-115 -47l-18 46q-55 -39 -116 -39q-79 0 -126.5 47t-47.5 124q0 148 146 234q-30 67 -30 134q0 74 45 128t124 54q69 0 111.5 -41t42.5 -105q0 -132 -144 -217l38 -106q11 27 29 89zM189 113q23 0 46 18l-55 157
q-48 -45 -48 -108q0 -30 14.5 -48.5t42.5 -18.5zM232 527q0 -38 14 -79q61 49 61 105q0 43 -32 43q-20 0 -31.5 -20t-11.5 -49z" />
    <glyph glyph-name="quotesingle" unicode="'" horiz-adv-x="187" 
d="M54 380l62 320h145l-1 -9l-147 -311h-59z" />
    <glyph glyph-name="parenleft" unicode="(" horiz-adv-x="290" 
d="M196 -132q-87 28 -132 111t-45 201q0 130 38 249t114 194q83 83 189 86l-20 -104q-36 -11 -66 -41q-61 -61 -91 -188t-30 -234q0 -130 63 -172z" />
    <glyph glyph-name="parenright" unicode=")" horiz-adv-x="290" 
d="M99 708q87 -28 132 -111t45 -201q0 -130 -38 -249t-114 -194q-83 -83 -189 -86l20 104q36 11 66 41q61 61 91 188t30 234q0 130 -63 172z" />
    <glyph glyph-name="asterisk" unicode="*" horiz-adv-x="315" 
d="M229 385l-97 19l48 108l-90 -61l-32 92l109 13l-96 52l64 73l60 -90l-4 118l97 -19l-49 -107l90 60l33 -92l-109 -12l96 -52l-65 -74l-60 90z" />
    <glyph glyph-name="plus" unicode="+" horiz-adv-x="408" 
d="M116 157l25 128h-117l25 134h118l25 128h132l-25 -128h118l-26 -134h-118l-25 -128h-132z" />
    <glyph glyph-name="comma" unicode="," horiz-adv-x="215" 
d="M-52 -148l-3 57q92 14 107 91h-77l32 161h159l-28 -148q-15 -80 -62.5 -118.5t-127.5 -42.5z" />
    <glyph glyph-name="hyphen" unicode="-" horiz-adv-x="325" 
d="M22 241l28 143h270l-28 -143h-270z" />
    <glyph glyph-name="period" unicode="." horiz-adv-x="215" 
d="M-25 0l32 161h159l-31 -161h-160z" />
    <glyph glyph-name="slash" unicode="/" horiz-adv-x="318" 
d="M-92 -98l406 866h112l-406 -866h-112z" />
    <glyph glyph-name="zero" unicode="0" horiz-adv-x="428" 
d="M280 712q75 0 118.5 -49t43.5 -153q0 -100 -35.5 -251.5t-103.5 -219.5q-51 -51 -126 -51q-74 0 -117.5 49t-43.5 153q0 100 35.5 251.5t103.5 219.5q51 51 125 51zM187 124q13 0 23 10q28 28 59.5 176.5t31.5 215.5q0 50 -31 50q-12 0 -22 -10q-28 -28 -59.5 -176.5
t-31.5 -215.5q0 -50 30 -50z" />
    <glyph glyph-name="one" unicode="1" horiz-adv-x="266" 
d="M33 0l104 541l-76 -21l27 147l117 36h111l-133 -703h-150z" />
    <glyph glyph-name="two" unicode="2" horiz-adv-x="353" 
d="M-34 0l25 134l181 260q55 79 55 122q0 51 -56 51q-37 0 -100 -28l27 146q56 25 115 26q79 1 124 -42t45 -117q0 -91 -82 -207l-140 -198h156l-29 -147h-321z" />
    <glyph glyph-name="three" unicode="3" horiz-adv-x="350" 
d="M106 -11q-79 0 -138 37l27 142q60 -35 102 -35q41 0 62.5 26.5t21.5 62.5q0 37 -25 59.5t-84 31.5l18 97l133 147h-151l27 143h313l-26 -137l-154 -169q97 -49 97 -161q0 -114 -70 -183q-59 -61 -153 -61z" />
    <glyph glyph-name="four" unicode="4" horiz-adv-x="417" 
d="M158 0l23 119h-199l22 110l271 472h160l-89 -456h57l-25 -126h-57l-23 -119h-140zM128 245h79l46 233z" />
    <glyph glyph-name="five" unicode="5" horiz-adv-x="361" 
d="M107 -11q-71 0 -129 34l28 145q50 -36 96 -36q44 0 70 40.5t26 92.5q0 59 -51 59q-23 0 -46 -9l-64 40l87 345h281l-28 -142h-170l-28 -113q12 3 25 3q144 0 144 -159q0 -68 -23 -133t-65 -107q-60 -60 -153 -60z" />
    <glyph glyph-name="six" unicode="6" horiz-adv-x="395" 
d="M165 -11q-66 0 -104 38q-48 48 -48 159q0 106 39.5 253t104.5 212q58 59 144 59q63 0 115 -26l-26 -136q-44 29 -87 29q-35 0 -58 -23q-29 -28 -52 -114q36 17 68 17q57 0 88.5 -38t31.5 -110q1 -70 -23.5 -147.5t-67.5 -121.5q-53 -51 -125 -51zM176 116q12 0 21 10
q19 19 32 74.5t13 88.5q0 51 -36 51q-16 0 -34 -8l-4 -20q-21 -102 -21 -148q0 -27 9 -39q6 -9 20 -9z" />
    <glyph glyph-name="seven" unicode="7" horiz-adv-x="341" 
d="M4 0l224 553h-163l29 147h314l-22 -112l-231 -588h-151z" />
    <glyph glyph-name="eight" unicode="8" horiz-adv-x="398" 
d="M169 -12q-80 0 -125 46t-45 122q0 72 30 132.5t86 89.5q-45 50 -45 121q0 88 51.5 150.5t140.5 62.5q74 0 118.5 -44.5t44.5 -119.5q0 -59 -27.5 -112.5t-77.5 -78.5q51 -49 51 -132q0 -95 -54 -166t-148 -71zM171 105q31 0 47.5 52.5t16.5 97.5q0 53 -32 53
q-31 0 -47.5 -52.5t-16.5 -97.5q0 -53 32 -53zM232 417q27 0 41 46.5t14 84.5q0 46 -31 46q-27 0 -41 -46t-14 -84q0 -47 31 -47z" />
    <glyph glyph-name="nine" unicode="9" horiz-adv-x="395" 
d="M124 -9q-69 0 -125 30l25 136q50 -33 98 -33q37 0 60 23q29 29 48 106q-34 -17 -67 -17q-56 0 -87.5 39t-32.5 113q0 73 25 151t68 122q51 51 124 51q66 0 106 -38q47 -48 47 -159q0 -106 -39.5 -253t-104.5 -212q-59 -59 -145 -59zM217 353q18 0 34 8l5 25
q23 108 23 151q0 25 -9 39q-8 9 -20 9t-22 -10q-20 -20 -33 -76t-13 -92q0 -54 35 -54z" />
    <glyph glyph-name="colon" unicode=":" horiz-adv-x="220" 
d="M-22 0l31 161h160l-32 -161h-159zM51 380l32 161h159l-31 -161h-160z" />
    <glyph glyph-name="semicolon" unicode=";" horiz-adv-x="220" 
d="M-49 -148l-3 57q54 8 76.5 32t30.5 59h-77l31 161h160l-29 -148q-28 -153 -189 -161zM51 380l32 161h159l-31 -161h-160z" />
    <glyph glyph-name="less" unicode="&#x3c;" horiz-adv-x="408" 
d="M340 99l-309 189l25 128l382 189l-32 -166l-218 -94l181 -95z" />
    <glyph glyph-name="equal" unicode="=" horiz-adv-x="408" 
d="M7 178l26 135h363l-27 -135h-362zM48 392l27 135h363l-27 -135h-363z" />
    <glyph glyph-name="greater" unicode="&#x3e;" horiz-adv-x="408" 
d="M0 98l32 166l218 94l-181 96l29 151l309 -189l-25 -129z" />
    <glyph glyph-name="question" unicode="?" horiz-adv-x="337" 
d="M79 224l24 183l4 6q116 21 116 98q0 26 -18 41t-52 15q-37 0 -86 -20l27 141q52 19 104 19q82 0 131 -44.5t49 -121.5q1 -78 -42 -134t-121 -81l-38 -102h-98zM7 0l31 159h159l-31 -159h-159z" />
    <glyph glyph-name="at" unicode="@" horiz-adv-x="615" 
d="M257 -136q-112 0 -179.5 76t-67.5 219q0 101 26 199.5t73 177t119 127t156 48.5q106 0 167 -76t61 -196q0 -95 -23.5 -181t-71.5 -143t-110 -57q-82 0 -90 85q-50 -81 -109 -81q-36 0 -57 29t-21 85q0 69 24 147.5t67.5 137t92.5 58.5q55 0 66 -67l15 58l106 -16
l-71 -289q-12 -50 -12 -69q0 -26 21 -26q44 0 87 101t43 225q0 101 -48.5 167t-142.5 66q-74 0 -136.5 -47.5t-102.5 -122.5t-62 -163.5t-22 -174.5q0 -124 54.5 -190t151.5 -66q79 0 147 44l18 -37q-83 -48 -169 -48zM264 151q30 0 59.5 90t29.5 147q0 33 -19 33
q-30 0 -59.5 -90.5t-29.5 -146.5q0 -33 19 -33z" />
    <glyph glyph-name="A" unicode="A" horiz-adv-x="431" 
d="M-56 0l269 702h172l-3 -702h-149l5 126h-104l-44 -126h-146zM177 253h66l10 221z" />
    <glyph glyph-name="B" unicode="B" horiz-adv-x="420" 
d="M-25 0l136 700h118q103 0 160.5 -44t57.5 -120q0 -69 -34.5 -116t-91.5 -69q77 -44 77 -131q0 -100 -70.5 -160t-199.5 -60h-153zM147 138h10q43 0 68 23.5t25 67.5q0 29 -17 45.5t-48 16.5h-7zM201 413h8q45 0 67 27t22 64q0 58 -64 58h-4z" />
    <glyph glyph-name="C" unicode="C" horiz-adv-x="362" 
d="M207 -7q-89 0 -138 57.5t-49 174.5q0 105 35.5 229.5t102.5 191.5q62 62 148 62q62 0 114 -28l-30 -149q-42 33 -78 33q-28 0 -53 -23q-38 -38 -63.5 -139.5t-25.5 -166.5q0 -53 18.5 -76.5t57.5 -23.5q31 0 74 18l-28 -142q-43 -18 -85 -18z" />
    <glyph glyph-name="D" unicode="D" horiz-adv-x="446" 
d="M-25 0l136 700h101q122 0 183 -61q60 -60 60 -180q0 -94 -32.5 -208t-92.5 -174q-77 -77 -213 -77h-142zM281 546q-16 16 -46 16h-1l-82 -424h2q40 0 68 28q36 36 59.5 133.5t23.5 158.5q0 64 -24 88z" />
    <glyph glyph-name="E" unicode="E" horiz-adv-x="352" 
d="M-25 0l136 700h303l-27 -142h-154l-26 -136h136l-27 -140h-137l-26 -140h156l-28 -142h-306z" />
    <glyph glyph-name="F" unicode="F" horiz-adv-x="334" 
d="M-25 0l136 700h291l-28 -142h-141l-27 -138h124l-27 -140h-124l-54 -280h-150z" />
    <glyph glyph-name="G" unicode="G" horiz-adv-x="430" 
d="M227 -11q-97 0 -151.5 61.5t-54.5 179.5q0 100 35 219t105 189q72 72 170 72q77 0 130 -35l-30 -148q-54 40 -101 40q-39 0 -67 -28q-45 -45 -68 -145t-23 -166q0 -103 56 -103q6 0 14 2l29 151h-53l26 132h189l-77 -393q-66 -28 -129 -28z" />
    <glyph glyph-name="H" unicode="H" horiz-adv-x="445" 
d="M-25 0l136 700h150l-54 -277h90l54 277h150l-136 -700h-150l54 281h-90l-54 -281h-150z" />
    <glyph glyph-name="I" unicode="I" horiz-adv-x="209" 
d="M-23 0l136 700h150l-136 -700h-150z" />
    <glyph glyph-name="J" unicode="J" horiz-adv-x="311" 
d="M72 -7q-61 0 -108 20l27 142q36 -19 70 -19q25 0 39 15q14 13 21 52l98 497h150l-101 -518q-19 -95 -66 -142t-130 -47z" />
    <glyph glyph-name="K" unicode="K" horiz-adv-x="426" 
d="M-25 0l136 700h150l-51 -263l135 263h160l-173 -313l37 -387h-156l-14 250l-40 -71l-34 -179h-150z" />
    <glyph glyph-name="L" unicode="L" horiz-adv-x="322" 
d="M-25 0l136 700h150l-108 -558h133l-28 -142h-283z" />
    <glyph glyph-name="M" unicode="M" horiz-adv-x="511" 
d="M-25 0l136 700h142l38 -233l129 233h147l-136 -700h-145l73 375l-127 -229h-2l-38 229l-73 -375h-144z" />
    <glyph glyph-name="N" unicode="N" horiz-adv-x="452" 
d="M-25 0l136 700h141l49 -323l63 323h144l-136 -700h-136l-51 340l-66 -340h-144z" />
    <glyph glyph-name="O" unicode="O" horiz-adv-x="449" 
d="M292 712q84 0 127.5 -57.5t43.5 -156.5q0 -108 -36.5 -247t-103.5 -206q-57 -57 -136 -57q-84 0 -127.5 57.5t-43.5 156.5q0 107 37 246.5t104 206.5q56 57 135 57zM197 124q12 0 26 12q31 31 61.5 173t30.5 210q0 57 -33 57q-12 0 -26 -12q-31 -31 -61.5 -173
t-30.5 -210q0 -57 33 -57z" />
    <glyph glyph-name="P" unicode="P" horiz-adv-x="408" 
d="M-25 0l136 700h117q105 0 162 -55q51 -51 51 -138q0 -63 -21 -124.5t-64 -102.5q-72 -69 -189 -69h-2l-41 -211h-149zM274 553q-16 14 -36 14h-4l-43 -223h3q34 0 57 23q20 20 30.5 58.5t10.5 71.5q0 36 -18 56z" />
    <glyph glyph-name="Q" unicode="Q" horiz-adv-x="453" 
d="M293 712q82 0 126 -58.5t44 -156.5q0 -83 -24 -192t-69 -188l43 -80l-103 -53l-19 40q-47 -35 -105 -35q-82 0 -126 58t-44 156q0 106 37.5 245.5t104.5 206.5q58 57 135 57zM201 122q16 0 29 13l-39 72l83 43q17 70 29.5 153t12.5 115q0 58 -34 58q-12 0 -26 -12
q-31 -31 -62.5 -174.5t-31.5 -209.5q0 -58 39 -58z" />
    <glyph glyph-name="R" unicode="R" horiz-adv-x="422" 
d="M211 0l-29 229q-2 0 -4.5 -0.5t-3.5 -0.5h-6l-44 -228h-149l136 700h107q128 0 183 -55q49 -49 49 -135q0 -123 -75 -198q-21 -20 -49 -37l40 -275h-155zM192 354h5q37 0 61 23q18 19 28.5 54.5t10.5 68.5q0 34 -17 51q-15 15 -42 15h-4z" />
    <glyph glyph-name="S" unicode="S" horiz-adv-x="359" 
d="M130 -8q-83 0 -154 48l29 149q75 -55 122 -55q27 0 43 17t16 45q0 31 -45 94q-44 58 -65.5 102.5t-21.5 96.5q0 101 62 163q56 56 142 56q78 0 140 -40l-29 -148q-61 46 -107 46q-26 0 -41.5 -16t-15.5 -41q0 -36 41 -91q49 -65 70.5 -108.5t21.5 -93.5q0 -103 -66 -169
q-55 -55 -142 -55z" />
    <glyph glyph-name="T" unicode="T" horiz-adv-x="356" 
d="M50 0l109 557h-92l28 143h334l-28 -143h-92l-109 -557h-150z" />
    <glyph glyph-name="U" unicode="U" horiz-adv-x="437" 
d="M182 -10q-80 0 -126 42.5t-46 115.5q0 38 8 81l91 471h149l-93 -477q-7 -40 -7 -56q0 -19 10 -29t26 -10q18 0 30 12q14 14 23 54l98 506h150l-97 -501q-21 -104 -71 -154q-55 -55 -145 -55z" />
    <glyph glyph-name="V" unicode="V" horiz-adv-x="414" 
d="M74 -2l6 702h150l-22 -419l141 419h152l-268 -702h-159z" />
    <glyph glyph-name="W" unicode="W" horiz-adv-x="630" 
d="M55 -2l28 702h153l-34 -403l131 403h129l-26 -403l122 403h155l-244 -702h-156l17 353l-118 -353h-157z" />
    <glyph glyph-name="X" unicode="X" horiz-adv-x="409" 
d="M-50 0l181 363l-41 337h151l9 -191l83 191h154l-176 -350l43 -350h-151l-11 205l-90 -205h-152z" />
    <glyph glyph-name="Y" unicode="Y" horiz-adv-x="409" 
d="M77 0l51 261l-48 439h149l9 -247l105 247h152l-218 -439l-51 -261h-149z" />
    <glyph glyph-name="Z" unicode="Z" horiz-adv-x="356" 
d="M-35 0l25 126l235 432h-149l27 142h319l-25 -126l-234 -432h154l-28 -142h-324z" />
    <glyph glyph-name="bracketleft" unicode="[" horiz-adv-x="276" 
d="M-35 -130l161 830h214l-19 -101h-88l-122 -628h87l-19 -101h-214z" />
    <glyph glyph-name="backslash" unicode="\" horiz-adv-x="315" 
d="M157 -98l-77 866h104l76 -866h-103z" />
    <glyph glyph-name="bracketright" unicode="]" horiz-adv-x="276" 
d="M316 700l-161 -830h-214l19 101h88l122 628h-87l19 101h214z" />
    <glyph glyph-name="asciicircum" unicode="^" 
d="M156 492l118 204h118l39 -204h-90l-22 129l-72 -129h-91z" />
    <glyph glyph-name="underscore" unicode="_" horiz-adv-x="479" 
d="M-84 -151l21 108h483l-21 -108h-483z" />
    <glyph glyph-name="grave" unicode="`" 
d="M317 572l-101 94l122 44l66 -138h-87z" />
    <glyph glyph-name="a" unicode="a" horiz-adv-x="376" 
d="M70 -9q-39 0 -62 30t-23 84q0 51 17.5 108.5t49.5 89.5q35 35 85 35q39 0 81 -25l3 15q4 24 4 33q0 56 -67 56q-42 0 -97 -24l26 136q60 20 119 20q78 0 122 -39t44 -115q0 -34 -9 -78l-62 -317h-145l8 46q-41 -55 -94 -55zM144 95q13 0 25 12t16 34l16 84q-19 12 -32 12
q-12 0 -21 -9q-13 -14 -21 -46t-8 -51q0 -36 25 -36z" />
    <glyph glyph-name="b" unicode="b" horiz-adv-x="411" 
d="M222 -10q-63 0 -91 73l-12 -63h-146l138 710h146l-45 -233q56 75 107 75q89 0 89 -137q0 -94 -31.5 -219t-80.5 -174q-32 -32 -74 -32zM182 122q11 0 19 8q20 21 39 112.5t19 132.5q0 44 -25 44q-11 0 -19 -8q-20 -21 -39 -112.5t-19 -133.5q0 -43 25 -43z" />
    <glyph glyph-name="c" unicode="c" horiz-adv-x="309" 
d="M167 -12q-76 0 -118 49.5t-42 138.5q0 81 26.5 175.5t79.5 147.5t127 53q57 0 103 -27l-28 -140q-35 28 -62 28q-24 0 -41 -17q-28 -28 -42.5 -90t-14.5 -111q0 -71 54 -71q25 0 58 14l-26 -137q-35 -13 -74 -13z" />
    <glyph glyph-name="d" unicode="d" horiz-adv-x="411" 
d="M187 0l12 64q-56 -75 -107 -75q-88 0 -88 137q0 95 31 219.5t81 173.5q32 32 74 32q62 0 90 -73l45 232h146l-138 -710h-146zM177 122q11 0 19 8q20 21 39 112.5t19 132.5q0 44 -25 44q-11 0 -19 -8q-20 -21 -39 -112.5t-19 -133.5q0 -43 25 -43z" />
    <glyph glyph-name="e" unicode="e" horiz-adv-x="381" 
d="M355 208h-208q-1 -8 -1 -18q0 -39 18 -56t55 -17q47 0 104 28l-16 -129q-54 -28 -122 -28q-86 0 -132 49.5t-46 146.5q0 73 26.5 166.5t80.5 147.5t125 54q66 0 103.5 -45t37.5 -129q0 -61 -25 -170zM204 416q-21 -21 -40 -108h75q10 46 10 76q0 41 -25 41q-11 0 -20 -9z
" />
    <glyph glyph-name="f" unicode="f" horiz-adv-x="251" 
d="M-11 0l82 424h-31l23 117h31l8 38q12 63 46 95q38 38 103 38q44 0 80 -12l-22 -111q-13 4 -28 4q-34 0 -41 -39l-3 -14h63l-23 -116h-61l-82 -424h-145z" />
    <glyph glyph-name="g" unicode="g" horiz-adv-x="411" 
d="M130 -133q-81 0 -161 26l25 126q69 -29 121 -29q39 0 59 19q19 19 28 63l8 41q-55 -76 -110 -76q-87 0 -87 140q0 88 28 192t74 150q32 32 74 32q63 0 91 -73l12 63h146l-94 -485q-18 -91 -64 -137q-52 -52 -150 -52zM185 168q11 0 19 8q20 21 35.5 91.5t15.5 112.5
q0 39 -25 39q-11 0 -19 -8q-20 -21 -35.5 -91.5t-15.5 -112.5q0 -39 25 -39z" />
    <glyph glyph-name="h" unicode="h" horiz-adv-x="401" 
d="M-27 0l138 710h146l-45 -231q52 73 111 73q43 0 65.5 -26t22.5 -67q0 -23 -6 -53l-79 -406h-146l70 358q5 27 5 35q0 28 -24 28q-14 0 -24.5 -12t-14.5 -32l-73 -377h-146z" />
    <glyph glyph-name="i" unicode="i" horiz-adv-x="200" 
d="M-25 0l105 541h145l-105 -541h-145zM87 582l25 128h147l-25 -128h-147z" />
    <glyph glyph-name="j" unicode="j" horiz-adv-x="202" 
d="M-31 -134q-33 0 -72 7l19 101q12 -3 24 -3q18 0 26.5 10t13.5 33l102 527h145l-104 -534q-15 -77 -52 -109t-102 -32zM89 582l25 128h147l-25 -128h-147z" />
    <glyph glyph-name="k" unicode="k" horiz-adv-x="386" 
d="M-27 0l138 710h146l-67 -341l96 172h156l-137 -231l28 -310h-149l-8 196l-29 -49l-28 -147h-146z" />
    <glyph glyph-name="l" unicode="l" horiz-adv-x="200" 
d="M-25 0l138 710h145l-138 -710h-145z" />
    <glyph glyph-name="m" unicode="m" horiz-adv-x="605" 
d="M-27 0l105 541h145l-12 -62q54 73 114 73q67 0 81 -69q55 69 120 69q43 0 65 -26t22 -67q0 -20 -5 -53l-79 -406h-145l70 358q5 27 5 35q0 28 -24 28q-14 0 -24 -12t-14 -32l-74 -377h-145l70 358q5 27 5 35q0 28 -23 28q-31 0 -39 -44l-73 -377h-145z" />
    <glyph glyph-name="n" unicode="n" horiz-adv-x="401" 
d="M-27 0l105 541h146l-12 -62q52 73 111 73q43 0 65.5 -26t22.5 -67q0 -23 -6 -53l-79 -406h-146l70 358q5 27 5 35q0 28 -24 28q-14 0 -24.5 -12t-14.5 -32l-73 -377h-146z" />
    <glyph glyph-name="o" unicode="o" horiz-adv-x="402" 
d="M240 552q75 0 115 -49.5t40 -135.5q0 -78 -26.5 -175t-79.5 -150q-54 -54 -128 -54t-114 49.5t-40 135.5q0 78 26.5 175t79.5 150q56 54 127 54zM172 115q11 0 20 9q22 22 42 116.5t20 140.5q0 44 -25 44q-10 0 -19 -9q-22 -22 -42.5 -117t-20.5 -140q0 -44 25 -44z" />
    <glyph glyph-name="p" unicode="p" horiz-adv-x="411" 
d="M222 -10q-63 0 -91 73l-37 -193h-146l130 671h146l-12 -64q56 75 107 75q89 0 89 -137q0 -94 -31.5 -219t-80.5 -174q-32 -32 -74 -32zM182 122q11 0 19 8q20 21 39 112.5t19 132.5q0 44 -25 44q-11 0 -19 -8q-20 -21 -39 -112.5t-19 -133.5q0 -43 25 -43z" />
    <glyph glyph-name="q" unicode="q" horiz-adv-x="411" 
d="M92 -11q-88 0 -88 137q0 95 31 219.5t81 173.5q32 32 74 32q62 0 90 -73l12 63h146l-130 -671h-146l37 194q-56 -75 -107 -75zM177 122q11 0 19 8q20 21 39 112.5t19 132.5q0 44 -25 44q-11 0 -19 -8q-20 -21 -39 -112.5t-19 -133.5q0 -43 25 -43z" />
    <glyph glyph-name="r" unicode="r" horiz-adv-x="265" 
d="M-27 0l105 541h145l-16 -78q43 88 103 84l-33 -174h-3q-82 0 -104 -112l-51 -261h-146z" />
    <glyph glyph-name="s" unicode="s" horiz-adv-x="307" 
d="M110 -11q-81 0 -139 44l27 135q65 -50 104 -50q18 0 28 10t10 26q0 22 -38 72q-37 46 -53 79t-16 74q0 74 45.5 123t122.5 49q68 0 124 -33l-27 -134q-55 38 -91 38q-17 0 -26.5 -9t-9.5 -22q0 -20 38 -70q70 -84 70 -152q0 -76 -46 -128t-123 -52z" />
    <glyph glyph-name="t" unicode="t" horiz-adv-x="259" 
d="M117 -8q-48 0 -78 23t-30 69q0 19 7 54l55 286h-30l22 117h31l25 132h145l-25 -132h61l-22 -117h-62l-48 -243q-1 -4 -2.5 -14t-3 -18t-1.5 -12q0 -21 26 -21q15 0 31 5l-22 -116q-36 -13 -79 -13z" />
    <glyph glyph-name="u" unicode="u" horiz-adv-x="401" 
d="M78 -11q-43 0 -65 26t-22 67q0 20 5 53l79 406h146l-70 -358q-5 -27 -5 -35q0 -28 24 -28q14 0 24.5 12t14.5 32l73 377h146l-105 -541h-146l12 62q-51 -73 -111 -73z" />
    <glyph glyph-name="v" unicode="v" horiz-adv-x="385" 
d="M66 -2l-12 543h144l-15 -317l106 317h147l-221 -543h-149z" />
    <glyph glyph-name="w" unicode="w" horiz-adv-x="549" 
d="M47 -2l9 543h143l-19 -280l90 280h113l-18 -280l88 280h145l-201 -543h-132l5 258l-90 -258h-133z" />
    <glyph glyph-name="x" unicode="x" horiz-adv-x="384" 
d="M202 541l14 -143l67 143h150l-155 -271l52 -270h-146l-13 153l-71 -153h-150l158 281l-50 260h144z" />
    <glyph glyph-name="y" unicode="y" horiz-adv-x="383" 
d="M67 11l-13 530h144l-13 -299l104 299h145l-284 -671h-143z" />
    <glyph glyph-name="z" unicode="z" horiz-adv-x="315" 
d="M-41 0l21 110l193 309h-132l23 122h293l-21 -109l-193 -310h136l-24 -122h-296z" />
    <glyph glyph-name="braceleft" unicode="{" horiz-adv-x="317" 
d="M219 -137q-184 21 -184 138q0 39 29 99q28 62 28 82q0 24 -19 37t-51 13h-11l21 108h13q50 0 73 25q19 19 22 51.5t-2 70.5q-4 53 3.5 93t39.5 72q61 61 202 57l-20 -100q-57 -2 -79 -25q-18 -18 -21 -48t2 -67q7 -33 2 -72.5t-32 -66.5q-34 -36 -104 -45q92 -28 92 -94
q0 -31 -30 -94q-27 -54 -27 -77q0 -44 72 -58z" />
    <glyph glyph-name="bar" unicode="|" horiz-adv-x="231" 
d="M-8 -98l168 866h103l-168 -866h-103z" />
    <glyph glyph-name="braceright" unicode="}" horiz-adv-x="317" 
d="M104 709q184 -21 184 -138q0 -39 -29 -99q-28 -62 -28 -82q0 -24 19 -37t51 -13h11l-21 -108h-13q-50 0 -73 -25q-19 -19 -22 -51.5t2 -70.5q4 -53 -3.5 -93t-39.5 -72q-61 -61 -202 -57l20 100q57 2 79 25q18 18 21 48t-2 67q-7 33 -2 72.5t32 66.5q34 36 104 45
q-92 28 -92 94q0 31 30 94q27 54 27 77q0 44 -72 58z" />
    <glyph glyph-name="asciitilde" unicode="~" horiz-adv-x="362" 
d="M96 250l-64 16q14 56 40.5 84t57.5 28q27 0 65 -20q36 -17 48 -17q24 0 40 41l65 -16q-15 -56 -41 -84t-57 -28q-26 0 -66 20q-36 17 -47 17q-23 0 -41 -41z" />
    <glyph glyph-name="uni00A0" unicode="&#xa0;" horiz-adv-x="150" 
 />
    <glyph glyph-name="exclamdown" unicode="&#xa1;" horiz-adv-x="225" 
d="M186 476l-35 -460l-3 -16h-177l3 16l144 460h68zM275 700l-31 -159h-159l31 159h159z" />
    <glyph glyph-name="cent" unicode="&#xa2;" horiz-adv-x="316" 
d="M219 705h100l-15 -77q30 -7 55 -21l-28 -140q-35 28 -62 28q-24 0 -41 -17q-28 -28 -42.5 -90t-14.5 -111q0 -71 54 -71q25 0 58 14l-26 -137q-31 -12 -62 -13l-14 -76h-100l18 96q-76 43 -76 168q0 81 26.5 175.5t79.5 147.5q31 33 75 46z" />
    <glyph glyph-name="sterling" unicode="&#xa3;" horiz-adv-x="384" 
d="M-34 0l20 103l60 28l28 140h-53l26 133h52l18 94q22 113 72 163q49 49 137 49q62 0 108 -22l-27 -139q-36 19 -67 19t-49 -18q-20 -20 -28 -67l-15 -79h104l-26 -133h-104l-26 -132h145l-26 -139h-349z" />
    <glyph glyph-name="yen" unicode="&#xa5;" horiz-adv-x="418" 
d="M82 0l18 96h-96l22 110h95l10 51h-96l22 111h67l-43 332h143l15 -253l109 253h152l-173 -332h68l-22 -111h-96l-10 -51h97l-22 -110h-96l-19 -96h-145z" />
    <glyph glyph-name="section" unicode="&#xa7;" horiz-adv-x="417" 
d="M425 360q0 -92 -111 -140q23 -33 23 -76q0 -63 -45.5 -109t-127.5 -46q-80 0 -140 39l25 123q59 -41 106 -41q42 0 42 33q0 25 -64 65q-58 34 -83.5 62.5t-25.5 69.5q0 92 111 140q-23 35 -23 76q0 63 45.5 109t127.5 46q79 0 141 -39l-25 -123q-59 41 -107 41
q-42 0 -42 -33q0 -25 64 -65q59 -34 84 -62.5t25 -69.5zM159 365q0 -15 12.5 -29.5t52.5 -41.5l23 -14q43 23 43 55q0 15 -12.5 30t-51.5 41l-24 14q-43 -24 -43 -55z" />
    <glyph glyph-name="dieresis" unicode="&#xa8;" 
d="M181 574l22 115h113l-22 -115h-113zM324 574l22 115h113l-22 -115h-113z" />
    <glyph glyph-name="copyright" unicode="&#xa9;" horiz-adv-x="510" 
d="M262 142q-53 0 -83 34t-30 100q0 60 21 132t59 111q39 39 91 39q37 0 67 -16l-19 -90q-22 16 -44 16q-19 0 -33 -14q-20 -20 -33.5 -76t-13.5 -92q0 -54 41 -54q20 0 44 10l-18 -89q-25 -11 -49 -11zM514 466q0 -104 -32 -223t-99 -185q-68 -70 -163 -70q-89 0 -143.5 65
t-54.5 181q0 104 32 223t99 185q70 70 164 70q89 0 143 -65t54 -181zM60 233q0 -99 43.5 -154.5t118.5 -55.5q77 0 136 59t89 173t30 212q0 100 -43.5 155t-119.5 55t-135 -59t-89 -172.5t-30 -212.5z" />
    <glyph glyph-name="ordfeminine" unicode="&#xaa;" horiz-adv-x="244" 
d="M111 402q-21 0 -33.5 16t-12.5 46q0 15 3.5 33.5t11.5 41t26.5 37.5t43.5 15q23 0 44 -13l1 8q2 8 2 18q0 29 -33 29q-26 0 -56 -14l15 74q36 12 69 12q41 0 63 -21.5t22 -60.5q0 -17 -3 -33l-35 -183h-79l5 26q-23 -31 -54 -31zM153 459q19 0 23 25l8 47q-8 5 -18 5
q-15 0 -20.5 -21t-5.5 -36q0 -20 13 -20zM28 291l13 65h195l-12 -65h-196z" />
    <glyph glyph-name="guillemotleft" unicode="&#xab;" horiz-adv-x="432" 
d="M104 44l-90 216l4 21l166 216l84 -48l-120 -182l58 -182zM281 44l-89 222l2 8l174 223l84 -48l-123 -182l53 -182z" />
    <glyph glyph-name="registered" unicode="&#xae;" horiz-adv-x="288" 
d="M219 713q47 0 75.5 -35t28.5 -92q0 -52 -16 -105t-50 -87q-35 -35 -85 -35q-47 0 -75.5 35t-28.5 92q0 51 16 104.5t50 86.5q36 36 85 36zM174 378q40 0 69 30q30 30 44 80t14 97q0 49 -22 78.5t-62 29.5t-69 -29q-30 -30 -44 -80t-14 -97q0 -50 22 -79.5t62 -29.5z
M180 504l-11 -63h-43l34 195h36q67 0 68 -54q0 -45 -37 -66l16 -75h-46l-12 63h-5zM187 541h4q11 0 17 7q11 10 11 30t-19 20h-4z" />
    <glyph glyph-name="macron" unicode="&#xaf;" 
d="M185 575l18 90h247l-18 -90h-247z" />
    <glyph glyph-name="degree" unicode="&#xb0;" horiz-adv-x="274" 
d="M211 706q48 0 74.5 -32.5t26.5 -85.5q0 -45 -16 -104.5t-50 -93.5q-35 -35 -83 -35q-47 0 -74 32.5t-27 86.5q0 45 16 104t50 94q35 34 83 34zM171 441q8 0 14 6q13 14 25 65t12 81q0 28 -18 28q-7 0 -14 -7q-13 -13 -25.5 -64.5t-12.5 -81.5q0 -27 19 -27z" />
    <glyph glyph-name="plusminus" unicode="&#xb1;" horiz-adv-x="408" 
d="M121 177l25 129h-117l25 132h118l25 129h132l-25 -129h118l-25 -132h-119l-25 -129h-132zM-30 0l24 125h367l-24 -125h-367z" />
    <glyph glyph-name="acute" unicode="&#xb4;" 
d="M209 572l102 138l117 -44l-128 -94h-91z" />
    <glyph glyph-name="paragraph" unicode="&#xb6;" horiz-adv-x="355" 
d="M141 0l44 225q-58 11 -95 48q-48 50 -48 130q0 140 84 223q74 74 193 74h90l-136 -700h-132z" />
    <glyph glyph-name="periodcentered" unicode="&#xb7;" horiz-adv-x="226" 
d="M25 232l32 161h159l-31 -161h-160z" />
    <glyph glyph-name="cedilla" unicode="&#xb8;" 
d="M184 -129l-125 35l103 114h94z" />
    <glyph glyph-name="ordmasculine" unicode="&#xba;" horiz-adv-x="244" 
d="M29 291l13 65h190l-12 -65h-191zM147 492q0 -23 14 -23q5 0 10 4q12 13 22.5 64t10.5 76q0 23 -13 23q-6 0 -10 -4q-13 -13 -23.5 -63.5t-10.5 -76.5zM281 606q0 -40 -14.5 -94.5t-44.5 -84.5q-28 -28 -67 -28q-41 0 -63 27t-22 73q0 41 14.5 95t44.5 84q28 28 68 28
t62 -27t22 -73z" />
    <glyph glyph-name="guillemotright" unicode="&#xbb;" horiz-adv-x="432" 
d="M328 496l90 -216l-4 -21l-166 -216l-84 48l120 182l-58 182zM151 496l89 -222l-2 -8l-174 -223l-84 48l123 182l-53 182z" />
    <glyph glyph-name="questiondown" unicode="&#xbf;" horiz-adv-x="337" 
d="M289 476l-24 -183l-4 -6q-116 -21 -116 -98q0 -26 18 -41t52 -15q37 0 86 20l-27 -141q-52 -19 -104 -19q-82 0 -131 44.5t-49 121.5q-1 78 42 134t121 81l38 102h98zM361 700l-31 -159h-159l31 159h159z" />
    <glyph glyph-name="Agrave" unicode="&#xc0;" horiz-adv-x="431" 
d="M-56 0l269 702h172l-3 -702h-149l5 126h-104l-44 -126h-146zM177 253h66l10 221zM252 734l-96 76l135 42l62 -118h-101z" />
    <glyph glyph-name="Aacute" unicode="&#xc1;" horiz-adv-x="431" 
d="M-56 0l269 702h172l-3 -702h-149l5 126h-104l-44 -126h-146zM177 253h66l10 221zM246 734l94 118l132 -42l-120 -76h-106z" />
    <glyph glyph-name="Acircumflex" unicode="&#xc2;" horiz-adv-x="431" 
d="M-56 0l269 702h172l-3 -702h-149l5 126h-104l-44 -126h-146zM177 253h66l10 221zM173 734l95 111h113l53 -111h-88l-33 41l-48 -41h-92z" />
    <glyph glyph-name="Atilde" unicode="&#xc3;" horiz-adv-x="431" 
d="M-56 0l269 702h172l-3 -702h-149l5 126h-104l-44 -126h-146zM177 253h66l10 221zM234 728l-70 15q33 116 93 116q20 0 63 -18q35 -15 45 -15q20 0 35 36l71 -14q-18 -60 -40.5 -88t-53.5 -28q-20 0 -61 17q-36 15 -47 15t-18.5 -7.5t-16.5 -28.5z" />
    <glyph glyph-name="Adieresis" unicode="&#xc4;" horiz-adv-x="431" 
d="M-56 0l269 702h172l-3 -702h-149l5 126h-104l-44 -126h-146zM177 253h66l10 221zM173 736l21 110h116l-21 -110h-116zM324 736l21 110h116l-21 -110h-116z" />
    <glyph glyph-name="Aring" unicode="&#xc5;" horiz-adv-x="431" 
d="M-56 0l268 699q-6 13 -6 30q0 42 31 71t77 29q37 0 62.5 -22.5t25.5 -57.5q0 -30 -17 -55l-3 -694h-149l5 126h-104l-44 -126h-146zM177 253h66l10 221zM299 694q21 0 35.5 14t14.5 35q0 17 -11 28t-29 11q-21 0 -35 -14.5t-14 -35.5q0 -17 11 -27.5t28 -10.5z" />
    <glyph glyph-name="AE" unicode="&#xc6;" horiz-adv-x="587" 
d="M-59 0l304 700h405l-28 -142h-153l-27 -136h137l-28 -140h-136l-27 -140h157l-28 -142h-307l25 126h-98l-51 -126h-145zM185 253h74l59 301h-10z" />
    <glyph glyph-name="Ccedilla" unicode="&#xc7;" horiz-adv-x="362" 
d="M148 -129l-125 35l95 105q-98 49 -98 214q0 105 35.5 229.5t102.5 191.5q62 62 148 62q62 0 114 -28l-30 -149q-42 33 -78 33q-28 0 -53 -23q-38 -38 -63.5 -139.5t-25.5 -166.5q0 -53 18.5 -76.5t57.5 -23.5q31 0 74 18l-28 -142q-43 -18 -85 -18z" />
    <glyph glyph-name="Egrave" unicode="&#xc8;" horiz-adv-x="352" 
d="M213 728l-96 76l135 42l62 -118h-101zM-25 0l136 700h303l-27 -142h-154l-26 -136h136l-27 -140h-137l-26 -140h156l-28 -142h-306z" />
    <glyph glyph-name="Eacute" unicode="&#xc9;" horiz-adv-x="352" 
d="M208 728l94 118l132 -42l-120 -76h-106zM-25 0l136 700h303l-27 -142h-154l-26 -136h136l-27 -140h-137l-26 -140h156l-28 -142h-306z" />
    <glyph glyph-name="Ecircumflex" unicode="&#xca;" horiz-adv-x="352" 
d="M-25 0l136 700h303l-27 -142h-154l-26 -136h136l-27 -140h-137l-26 -140h156l-28 -142h-306zM133 728l95 111h113l53 -111h-88l-33 41l-48 -41h-92z" />
    <glyph glyph-name="Edieresis" unicode="&#xcb;" horiz-adv-x="352" 
d="M133 730l21 110h116l-21 -110h-116zM284 730l21 110h116l-21 -110h-116zM-25 0l136 700h303l-27 -142h-154l-26 -136h136l-27 -140h-137l-26 -140h156l-28 -142h-306z" />
    <glyph glyph-name="Igrave" unicode="&#xcc;" horiz-adv-x="209" 
d="M-23 0l136 700h150l-136 -700h-150zM141 728l-96 76l135 42l62 -118h-101z" />
    <glyph glyph-name="Iacute" unicode="&#xcd;" horiz-adv-x="209" 
d="M-23 0l136 700h150l-136 -700h-150zM136 728l94 118l132 -42l-120 -76h-106z" />
    <glyph glyph-name="Icircumflex" unicode="&#xce;" horiz-adv-x="209" 
d="M-23 0l136 700h150l-136 -700h-150zM61 728l95 111h113l53 -111h-88l-33 41l-48 -41h-92z" />
    <glyph glyph-name="Idieresis" unicode="&#xcf;" horiz-adv-x="209" 
d="M-23 0l136 700h150l-136 -700h-150zM61 730l21 110h116l-21 -110h-116zM212 730l21 110h116l-21 -110h-116z" />
    <glyph glyph-name="Eth" unicode="&#xd0;" horiz-adv-x="460" 
d="M11 288l24 128h35l55 284h100q123 0 184 -61q60 -60 60 -180q0 -94 -32.5 -208t-92.5 -174q-77 -77 -213 -77h-142l56 288h-34zM295 546q-16 16 -46 16h-3l-29 -147h48l-24 -126h-48l-29 -151h4q40 0 68 28q36 36 59.5 133.5t23.5 158.5q0 64 -24 88z" />
    <glyph glyph-name="Ntilde" unicode="&#xd1;" horiz-adv-x="452" 
d="M241 720l-70 15q33 116 93 116q20 0 63 -18q35 -15 45 -15q20 0 35 36l71 -14q-18 -60 -40.5 -88t-53.5 -28q-20 0 -61 17q-36 15 -47 15t-18.5 -7.5t-16.5 -28.5zM-25 0l136 700h141l49 -323l63 323h144l-136 -700h-136l-51 340l-66 -340h-144z" />
    <glyph glyph-name="Ograve" unicode="&#xd2;" horiz-adv-x="449" 
d="M260 734l-96 76l135 42l62 -118h-101zM292 712q84 0 127.5 -57.5t43.5 -156.5q0 -108 -36.5 -247t-103.5 -206q-57 -57 -136 -57q-84 0 -127.5 57.5t-43.5 156.5q0 107 37 246.5t104 206.5q56 57 135 57zM197 124q12 0 26 12q31 31 61.5 173t30.5 210q0 57 -33 57
q-12 0 -26 -12q-31 -31 -61.5 -173t-30.5 -210q0 -57 33 -57z" />
    <glyph glyph-name="Oacute" unicode="&#xd3;" horiz-adv-x="449" 
d="M254 734l94 118l132 -42l-120 -76h-106zM292 712q84 0 127.5 -57.5t43.5 -156.5q0 -108 -36.5 -247t-103.5 -206q-57 -57 -136 -57q-84 0 -127.5 57.5t-43.5 156.5q0 107 37 246.5t104 206.5q56 57 135 57zM197 124q12 0 26 12q31 31 61.5 173t30.5 210q0 57 -33 57
q-12 0 -26 -12q-31 -31 -61.5 -173t-30.5 -210q0 -57 33 -57z" />
    <glyph glyph-name="Ocircumflex" unicode="&#xd4;" horiz-adv-x="449" 
d="M292 712q84 0 127.5 -57.5t43.5 -156.5q0 -108 -36.5 -247t-103.5 -206q-57 -57 -136 -57q-84 0 -127.5 57.5t-43.5 156.5q0 107 37 246.5t104 206.5q56 57 135 57zM197 124q12 0 26 12q31 31 61.5 173t30.5 210q0 57 -33 57q-12 0 -26 -12q-31 -31 -61.5 -173
t-30.5 -210q0 -57 33 -57zM180 734l95 111h113l53 -111h-88l-33 41l-48 -41h-92z" />
    <glyph glyph-name="Otilde" unicode="&#xd5;" horiz-adv-x="449" 
d="M242 728l-70 15q33 116 93 116q20 0 63 -18q34 -15 45 -15q20 0 35 36l71 -14q-18 -60 -40.5 -88t-53.5 -28q-20 0 -61 17q-36 15 -47 15t-18.5 -7.5t-16.5 -28.5zM292 712q84 0 127.5 -57.5t43.5 -156.5q0 -108 -36.5 -247t-103.5 -206q-57 -57 -136 -57
q-84 0 -127.5 57.5t-43.5 156.5q0 107 37 246.5t104 206.5q56 57 135 57zM197 124q12 0 26 12q31 31 61.5 173t30.5 210q0 57 -33 57q-12 0 -26 -12q-31 -31 -61.5 -173t-30.5 -210q0 -57 33 -57z" />
    <glyph glyph-name="Odieresis" unicode="&#xd6;" horiz-adv-x="449" 
d="M181 736l21 110h116l-21 -110h-116zM332 736l21 110h116l-21 -110h-116zM292 712q84 0 127.5 -57.5t43.5 -156.5q0 -108 -36.5 -247t-103.5 -206q-57 -57 -136 -57q-84 0 -127.5 57.5t-43.5 156.5q0 107 37 246.5t104 206.5q56 57 135 57zM197 124q12 0 26 12
q31 31 61.5 173t30.5 210q0 57 -33 57q-12 0 -26 -12q-31 -31 -61.5 -173t-30.5 -210q0 -57 33 -57z" />
    <glyph glyph-name="multiply" unicode="&#xd7;" horiz-adv-x="408" 
d="M94 157l-85 95l123 106l-78 103l105 82l73 -98l112 102l85 -95l-122 -107l78 -103l-105 -82l-72 98z" />
    <glyph glyph-name="Oslash" unicode="&#xd8;" horiz-adv-x="448" 
d="M292 712q75 0 118 -48l27 41h72l-64 -98q18 -51 18 -110q0 -107 -36.5 -246t-103.5 -206q-57 -57 -136 -57q-74 0 -119 48l-26 -41h-72l64 97q-18 46 -18 111q0 107 37 246t104 206q56 57 135 57zM254 567q-24 -23 -46.5 -106.5t-36.5 -177.5l147 256q-4 41 -36 41
q-13 0 -28 -13zM197 120q13 0 28 13q23 23 45.5 105.5t36.5 175.5l-146 -256q5 -38 36 -38z" />
    <glyph glyph-name="Ugrave" unicode="&#xd9;" horiz-adv-x="437" 
d="M253 726l-96 76l135 42l62 -118h-101zM182 -10q-80 0 -126 42.5t-46 115.5q0 38 8 81l91 471h149l-93 -477q-7 -40 -7 -56q0 -19 10 -29t26 -10q18 0 30 12q14 14 23 54l98 506h150l-97 -501q-21 -104 -71 -154q-55 -55 -145 -55z" />
    <glyph glyph-name="Uacute" unicode="&#xda;" horiz-adv-x="437" 
d="M247 726l94 118l132 -42l-120 -76h-106zM182 -10q-80 0 -126 42.5t-46 115.5q0 38 8 81l91 471h149l-93 -477q-7 -40 -7 -56q0 -19 10 -29t26 -10q18 0 30 12q14 14 23 54l98 506h150l-97 -501q-21 -104 -71 -154q-55 -55 -145 -55z" />
    <glyph glyph-name="Ucircumflex" unicode="&#xdb;" horiz-adv-x="437" 
d="M182 -10q-80 0 -126 42.5t-46 115.5q0 38 8 81l91 471h149l-93 -477q-7 -40 -7 -56q0 -19 10 -29t26 -10q18 0 30 12q14 14 23 54l98 506h150l-97 -501q-21 -104 -71 -154q-55 -55 -145 -55zM174 726l95 111h113l53 -111h-88l-33 41l-48 -41h-92z" />
    <glyph glyph-name="Udieresis" unicode="&#xdc;" horiz-adv-x="437" 
d="M174 728l21 110h116l-21 -110h-116zM325 728l21 110h116l-21 -110h-116zM182 -10q-80 0 -126 42.5t-46 115.5q0 38 8 81l91 471h149l-93 -477q-7 -40 -7 -56q0 -19 10 -29t26 -10q18 0 30 12q14 14 23 54l98 506h150l-97 -501q-21 -104 -71 -154q-55 -55 -145 -55z" />
    <glyph glyph-name="Yacute" unicode="&#xdd;" horiz-adv-x="409" 
d="M77 0l51 261l-48 439h149l9 -247l105 247h152l-218 -439l-51 -261h-149zM231 726l94 118l132 -42l-120 -76h-106z" />
    <glyph glyph-name="Thorn" unicode="&#xde;" horiz-adv-x="408" 
d="M-25 0l136 700h149l-18 -92q81 -5 131 -53q50 -50 50 -135q0 -62 -21 -125.5t-64 -104.5q-73 -70 -189 -70h-2l-23 -120h-149zM173 253h3q34 0 57 23q20 20 30.5 58.5t10.5 71.5q0 38 -18 56q-14 14 -36 14h-4z" />
    <glyph glyph-name="germandbls" unicode="&#xdf;" horiz-adv-x="432" 
d="M160 -1l24 123q41 3 60.5 34.5t19.5 78.5q0 53 -44 73l21 107q32 14 50 49t18 75q0 50 -35 50q-40 0 -57 -88l-98 -501h-146l99 509q20 101 68 148q54 54 144 54q81 0 126.5 -45.5t45.5 -116.5q0 -135 -116 -188q68 -53 68 -137q0 -103 -62 -167.5t-186 -57.5z" />
    <glyph glyph-name="agrave" unicode="&#xe0;" horiz-adv-x="376" 
d="M70 -9q-39 0 -62 30t-23 84q0 51 17.5 108.5t49.5 89.5q35 35 85 35q39 0 81 -25l3 15q4 24 4 33q0 56 -67 56q-42 0 -97 -24l26 136q60 20 119 20q78 0 122 -39t44 -115q0 -34 -9 -78l-62 -317h-145l8 46q-41 -55 -94 -55zM144 95q13 0 25 12t16 34l16 84q-19 12 -32 12
q-12 0 -21 -9q-13 -14 -21 -46t-8 -51q0 -36 25 -36zM195 578l-101 94l122 44l66 -138h-87z" />
    <glyph glyph-name="aacute" unicode="&#xe1;" horiz-adv-x="376" 
d="M70 -9q-39 0 -62 30t-23 84q0 51 17.5 108.5t49.5 89.5q35 35 85 35q39 0 81 -25l3 15q4 24 4 33q0 56 -67 56q-42 0 -97 -24l26 136q60 20 119 20q78 0 122 -39t44 -115q0 -34 -9 -78l-62 -317h-145l8 46q-41 -55 -94 -55zM144 95q13 0 25 12t16 34l16 84q-19 12 -32 12
q-12 0 -21 -9q-13 -14 -21 -46t-8 -51q0 -36 25 -36zM186 578l102 138l117 -44l-128 -94h-91z" />
    <glyph glyph-name="acircumflex" unicode="&#xe2;" horiz-adv-x="376" 
d="M70 -9q-39 0 -62 30t-23 84q0 51 17.5 108.5t49.5 89.5q35 35 85 35q39 0 81 -25l3 15q4 24 4 33q0 56 -67 56q-42 0 -97 -24l26 136q60 20 119 20q78 0 122 -39t44 -115q0 -34 -9 -78l-62 -317h-145l8 46q-41 -55 -94 -55zM144 95q13 0 25 12t16 34l16 84q-19 12 -32 12
q-12 0 -21 -9q-13 -14 -21 -46t-8 -51q0 -36 25 -36zM107 578l104 128h104l53 -128h-82l-36 51l-56 -51h-87z" />
    <glyph glyph-name="atilde" unicode="&#xe3;" horiz-adv-x="376" 
d="M70 -9q-39 0 -62 30t-23 84q0 51 17.5 108.5t49.5 89.5q35 35 85 35q39 0 81 -25l3 15q4 24 4 33q0 56 -67 56q-42 0 -97 -24l26 136q60 20 119 20q78 0 122 -39t44 -115q0 -34 -9 -78l-62 -317h-145l8 46q-41 -55 -94 -55zM144 95q13 0 25 12t16 34l16 84q-19 12 -32 12
q-12 0 -21 -9q-13 -14 -21 -46t-8 -51q0 -36 25 -36zM335 704l69 -14q-31 -114 -94 -114q-17 0 -59 17q-34 15 -46 15t-20 -8t-16 -28l-69 14q31 114 94 114q19 0 59 -17q35 -15 46 -15q12 0 20 8t16 28z" />
    <glyph glyph-name="adieresis" unicode="&#xe4;" horiz-adv-x="376" 
d="M70 -9q-39 0 -62 30t-23 84q0 51 17.5 108.5t49.5 89.5q35 35 85 35q39 0 81 -25l3 15q4 24 4 33q0 56 -67 56q-42 0 -97 -24l26 136q60 20 119 20q78 0 122 -39t44 -115q0 -34 -9 -78l-62 -317h-145l8 46q-41 -55 -94 -55zM144 95q13 0 25 12t16 34l16 84q-19 12 -32 12
q-12 0 -21 -9q-13 -14 -21 -46t-8 -51q0 -36 25 -36zM113 580l22 115h113l-22 -115h-113zM256 580l22 115h113l-22 -115h-113z" />
    <glyph glyph-name="aring" unicode="&#xe5;" horiz-adv-x="376" 
d="M70 -9q-39 0 -62 30t-23 84q0 51 17.5 108.5t49.5 89.5q35 35 85 35q39 0 81 -25l3 15q4 24 4 33q0 56 -67 56q-42 0 -97 -24l26 136q60 20 119 20q78 0 122 -39t44 -115q0 -34 -9 -78l-62 -317h-145l8 46q-41 -55 -94 -55zM144 95q13 0 25 12t16 34l16 84q-19 12 -32 12
q-12 0 -21 -9q-13 -14 -21 -46t-8 -51q0 -36 25 -36zM351 678q0 -41 -28.5 -73t-74.5 -32q-36 0 -60 23t-24 59q0 42 29 74t75 32q36 0 59.5 -23t23.5 -60zM217 658q0 -16 9.5 -27t25.5 -11q20 0 33.5 16t13.5 39q0 17 -9.5 27.5t-26.5 10.5q-20 0 -33 -15.5t-13 -39.5z" />
    <glyph glyph-name="ae" unicode="&#xe6;" horiz-adv-x="570" 
d="M373 -11q-110 0 -149 82q-58 -80 -132 -80q-49 0 -78 31.5t-29 87.5q0 51 17.5 106t49.5 87q35 35 85 35q39 0 81 -25l3 15q4 24 4 33q0 56 -67 56q-42 0 -97 -24l26 136q60 20 120 20q84 0 120 -52q47 55 112 55q62 0 96 -45t34 -129q0 -61 -25 -170h-208q-1 -8 -1 -18
q0 -39 18 -56t55 -17q47 0 104 28l-16 -129q-52 -27 -123 -27zM148 99q31 0 56 46q-2 43 2 81q-20 13 -37 13q-12 0 -21 -9q-12 -13 -20.5 -42t-8.5 -50q0 -39 29 -39zM393 416q-21 -21 -40 -108h75q10 46 10 76q0 41 -25 41q-11 0 -20 -9z" />
    <glyph glyph-name="ccedilla" unicode="&#xe7;" horiz-adv-x="309" 
d="M118 -129l-125 35l91 101q-77 45 -77 169q0 81 26.5 175.5t79.5 147.5t127 53q57 0 103 -27l-28 -140q-35 28 -62 28q-24 0 -41 -17q-28 -28 -42.5 -90t-14.5 -111q0 -71 54 -71q25 0 58 14l-26 -137q-32 -12 -67 -13z" />
    <glyph glyph-name="egrave" unicode="&#xe8;" horiz-adv-x="381" 
d="M355 208h-208q-1 -8 -1 -18q0 -39 18 -56t55 -17q47 0 104 28l-16 -129q-54 -28 -122 -28q-86 0 -132 49.5t-46 146.5q0 73 26.5 166.5t80.5 147.5t125 54q66 0 103.5 -45t37.5 -129q0 -61 -25 -170zM204 578l-101 94l122 44l66 -138h-87zM204 416q-21 -21 -40 -108h75
q10 46 10 76q0 41 -25 41q-11 0 -20 -9z" />
    <glyph glyph-name="eacute" unicode="&#xe9;" horiz-adv-x="381" 
d="M355 208h-208q-1 -8 -1 -18q0 -39 18 -56t55 -17q47 0 104 28l-16 -129q-54 -28 -122 -28q-86 0 -132 49.5t-46 146.5q0 73 26.5 166.5t80.5 147.5t125 54q66 0 103.5 -45t37.5 -129q0 -61 -25 -170zM195 578l102 138l117 -44l-128 -94h-91zM204 416q-21 -21 -40 -108h75
q10 46 10 76q0 41 -25 41q-11 0 -20 -9z" />
    <glyph glyph-name="ecircumflex" unicode="&#xea;" horiz-adv-x="381" 
d="M355 208h-208q-1 -8 -1 -18q0 -39 18 -56t55 -17q47 0 104 28l-16 -129q-54 -28 -122 -28q-86 0 -132 49.5t-46 146.5q0 73 26.5 166.5t80.5 147.5t125 54q66 0 103.5 -45t37.5 -129q0 -61 -25 -170zM116 578l104 128h104l53 -128h-82l-36 51l-56 -51h-87zM204 416
q-21 -21 -40 -108h75q10 46 10 76q0 41 -25 41q-11 0 -20 -9z" />
    <glyph glyph-name="edieresis" unicode="&#xeb;" horiz-adv-x="381" 
d="M355 208h-208q-1 -8 -1 -18q0 -39 18 -56t55 -17q47 0 104 28l-16 -129q-54 -28 -122 -28q-86 0 -132 49.5t-46 146.5q0 73 26.5 166.5t80.5 147.5t125 54q66 0 103.5 -45t37.5 -129q0 -61 -25 -170zM265 580l22 115h113l-22 -115h-113zM122 580l22 115h113l-22 -115
h-113zM204 416q-21 -21 -40 -108h75q10 46 10 76q0 41 -25 41q-11 0 -20 -9z" />
    <glyph glyph-name="igrave" unicode="&#xec;" horiz-adv-x="200" 
d="M-25 0l105 541h145l-105 -541h-145zM113 572l-101 94l122 44l66 -138h-87z" />
    <glyph glyph-name="iacute" unicode="&#xed;" horiz-adv-x="200" 
d="M104 572l102 138l117 -44l-128 -94h-91zM-25 0l105 541h145l-105 -541h-145z" />
    <glyph glyph-name="icircumflex" unicode="&#xee;" horiz-adv-x="200" 
d="M26 572l104 128h104l53 -128h-82l-36 51l-56 -51h-87zM-25 0l105 541h145l-105 -541h-145z" />
    <glyph glyph-name="idieresis" unicode="&#xef;" horiz-adv-x="200" 
d="M32 574l22 115h113l-22 -115h-113zM175 574l22 115h113l-22 -115h-113zM-25 0l105 541h145l-105 -541h-145z" />
    <glyph glyph-name="eth" unicode="&#xf0;" horiz-adv-x="402" 
d="M170 571l-17 69l52 14q-15 24 -40 56h157l14 -21l62 17l17 -69l-48 -13q32 -88 32 -203q0 -100 -27.5 -210.5t-87.5 -170.5q-52 -52 -124 -52q-74 0 -113 50t-39 136q0 77 27.5 178t80.5 154q39 39 83 39q37 0 64 -30q-7 37 -24 74zM172 114q10 0 20 10q23 23 42.5 118
t19.5 140t-24 45q-10 0 -20 -10q-23 -23 -42.5 -118t-19.5 -140t24 -45z" />
    <glyph glyph-name="ntilde" unicode="&#xf1;" horiz-adv-x="401" 
d="M-27 0l105 541h146l-12 -62q52 73 111 73q43 0 65.5 -26t22.5 -67q0 -23 -6 -53l-79 -406h-146l70 358q5 27 5 35q0 28 -24 28q-14 0 -24.5 -12t-14.5 -32l-73 -377h-146zM352 704l69 -14q-31 -114 -94 -114q-17 0 -59 17q-35 15 -46 15q-12 0 -20 -8t-16 -28l-69 14
q31 114 94 114q19 0 59 -17q35 -15 46 -15q12 0 20 8t16 28z" />
    <glyph glyph-name="ograve" unicode="&#xf2;" horiz-adv-x="402" 
d="M240 552q75 0 115 -49.5t40 -135.5q0 -78 -26.5 -175t-79.5 -150q-54 -54 -128 -54t-114 49.5t-40 135.5q0 78 26.5 175t79.5 150q56 54 127 54zM172 115q11 0 20 9q22 22 42 116.5t20 140.5q0 44 -25 44q-10 0 -19 -9q-22 -22 -42.5 -117t-20.5 -140q0 -44 25 -44z
M216 578l-101 94l122 44l66 -138h-87z" />
    <glyph glyph-name="oacute" unicode="&#xf3;" horiz-adv-x="402" 
d="M207 578l102 138l117 -44l-128 -94h-91zM240 552q75 0 115 -49.5t40 -135.5q0 -78 -26.5 -175t-79.5 -150q-54 -54 -128 -54t-114 49.5t-40 135.5q0 78 26.5 175t79.5 150q56 54 127 54zM172 115q11 0 20 9q22 22 42 116.5t20 140.5q0 44 -25 44q-10 0 -19 -9
q-22 -22 -42.5 -117t-20.5 -140q0 -44 25 -44z" />
    <glyph glyph-name="ocircumflex" unicode="&#xf4;" horiz-adv-x="402" 
d="M128 578l104 128h104l53 -128h-82l-36 51l-56 -51h-87zM240 552q75 0 115 -49.5t40 -135.5q0 -78 -26.5 -175t-79.5 -150q-54 -54 -128 -54t-114 49.5t-40 135.5q0 78 26.5 175t79.5 150q56 54 127 54zM172 115q11 0 20 9q22 22 42 116.5t20 140.5q0 44 -25 44
q-10 0 -19 -9q-22 -22 -42.5 -117t-20.5 -140q0 -44 25 -44z" />
    <glyph glyph-name="otilde" unicode="&#xf5;" horiz-adv-x="402" 
d="M240 552q75 0 115 -49.5t40 -135.5q0 -78 -26.5 -175t-79.5 -150q-54 -54 -128 -54t-114 49.5t-40 135.5q0 78 26.5 175t79.5 150q56 54 127 54zM172 115q11 0 20 9q22 22 42 116.5t20 140.5q0 44 -25 44q-10 0 -19 -9q-22 -22 -42.5 -117t-20.5 -140q0 -44 25 -44z
M356 704l69 -14q-31 -114 -94 -114q-17 0 -59 17q-35 15 -46 15q-12 0 -20 -8t-16 -28l-69 14q31 114 94 114q19 0 59 -17q35 -15 46 -15q12 0 20 8t16 28z" />
    <glyph glyph-name="odieresis" unicode="&#xf6;" horiz-adv-x="402" 
d="M134 580l22 115h113l-22 -115h-113zM277 580l22 115h113l-22 -115h-113zM240 552q75 0 115 -49.5t40 -135.5q0 -78 -26.5 -175t-79.5 -150q-54 -54 -128 -54t-114 49.5t-40 135.5q0 78 26.5 175t79.5 150q56 54 127 54zM172 115q11 0 20 9q22 22 42 116.5t20 140.5
q0 44 -25 44q-10 0 -19 -9q-22 -22 -42.5 -117t-20.5 -140q0 -44 25 -44z" />
    <glyph glyph-name="divide" unicode="&#xf7;" horiz-adv-x="408" 
d="M107 116l24 126h134l-25 -126h-133zM26 288l24 128h364l-25 -128h-363zM174 462l24 126h134l-25 -126h-133z" />
    <glyph glyph-name="oslash" unicode="&#xf8;" horiz-adv-x="402" 
d="M240 552q69 0 110 -44l27 37h69l-66 -88q15 -39 15 -90q0 -78 -26.5 -175t-79.5 -150q-54 -54 -128 -54q-71 0 -110 44l-26 -37h-69l65 88q-14 40 -14 90q0 78 26.5 175t79.5 150q56 54 127 54zM194 121q34 34 59 182l-111 -164q6 -28 30 -28q12 0 22 10zM230 429
q-13 0 -23 -10q-33 -33 -58 -181l110 163q-6 28 -29 28z" />
    <glyph glyph-name="ugrave" unicode="&#xf9;" horiz-adv-x="401" 
d="M78 -11q-43 0 -65 26t-22 67q0 20 5 53l79 406h146l-70 -358q-5 -27 -5 -35q0 -28 24 -28q14 0 24.5 12t14.5 32l73 377h146l-105 -541h-146l12 62q-51 -73 -111 -73zM211 570l-101 94l122 44l66 -138h-87z" />
    <glyph glyph-name="uacute" unicode="&#xfa;" horiz-adv-x="401" 
d="M202 570l102 138l117 -44l-128 -94h-91zM78 -11q-43 0 -65 26t-22 67q0 20 5 53l79 406h146l-70 -358q-5 -27 -5 -35q0 -28 24 -28q14 0 24.5 12t14.5 32l73 377h146l-105 -541h-146l12 62q-51 -73 -111 -73z" />
    <glyph glyph-name="ucircumflex" unicode="&#xfb;" horiz-adv-x="401" 
d="M124 570l104 128h104l53 -128h-82l-36 51l-56 -51h-87zM78 -11q-43 0 -65 26t-22 67q0 20 5 53l79 406h146l-70 -358q-5 -27 -5 -35q0 -28 24 -28q14 0 24.5 12t14.5 32l73 377h146l-105 -541h-146l12 62q-51 -73 -111 -73z" />
    <glyph glyph-name="udieresis" unicode="&#xfc;" horiz-adv-x="401" 
d="M130 572l22 115h113l-22 -115h-113zM273 572l22 115h113l-22 -115h-113zM78 -11q-43 0 -65 26t-22 67q0 20 5 53l79 406h146l-70 -358q-5 -27 -5 -35q0 -28 24 -28q14 0 24.5 12t14.5 32l73 377h146l-105 -541h-146l12 62q-51 -73 -111 -73z" />
    <glyph glyph-name="yacute" unicode="&#xfd;" horiz-adv-x="383" 
d="M67 11l-13 530h144l-13 -299l104 299h145l-284 -671h-143zM193 570l102 138l117 -44l-128 -94h-91z" />
    <glyph glyph-name="thorn" unicode="&#xfe;" horiz-adv-x="411" 
d="M257 710l-45 -233q56 75 107 75q89 0 89 -137q0 -94 -31.5 -219t-80.5 -174q-32 -32 -74 -32q-63 0 -91 73l-37 -193h-146l163 840h146zM182 122q11 0 19 8q20 21 39 112.5t19 132.5q0 44 -25 44q-11 0 -19 -8q-20 -21 -39 -112.5t-19 -133.5q0 -43 25 -43z" />
    <glyph glyph-name="ydieresis" unicode="&#xff;" horiz-adv-x="383" 
d="M67 11l-13 530h144l-13 -299l104 299h145l-284 -671h-143zM263 572l22 115h113l-22 -115h-113zM120 572l22 115h113l-22 -115h-113z" />
    <glyph glyph-name="Amacron" unicode="&#x100;" horiz-adv-x="431" 
d="M-56 0l269 702h172l-3 -702h-149l5 126h-104l-44 -126h-146zM177 253h66l10 221zM177 737l18 91h258l-18 -91h-258z" />
    <glyph glyph-name="amacron" unicode="&#x101;" horiz-adv-x="376" 
d="M70 -9q-39 0 -62 30t-23 84q0 51 17.5 108.5t49.5 89.5q35 35 85 35q39 0 81 -25l3 15q4 24 4 33q0 56 -67 56q-42 0 -97 -24l26 136q60 20 119 20q78 0 122 -39t44 -115q0 -34 -9 -78l-62 -317h-145l8 46q-41 -55 -94 -55zM144 95q13 0 25 12t16 34l16 84q-19 12 -32 12
q-12 0 -21 -9q-13 -14 -21 -46t-8 -51q0 -36 25 -36zM117 581l18 90h247l-18 -90h-247z" />
    <glyph glyph-name="Abreve" unicode="&#x102;" horiz-adv-x="431" 
d="M-56 0l269 702h172l-3 -702h-149l5 126h-104l-44 -126h-146zM177 253h66l10 221zM305 730q-54 0 -83.5 27.5t-21.5 80.5h78q0 -33 37 -33q33 0 47 33h81q-26 -108 -138 -108z" />
    <glyph glyph-name="abreve" unicode="&#x103;" horiz-adv-x="376" 
d="M70 -9q-39 0 -62 30t-23 84q0 51 17.5 108.5t49.5 89.5q35 35 85 35q39 0 81 -25l3 15q4 24 4 33q0 56 -67 56q-42 0 -97 -24l26 136q60 20 119 20q78 0 122 -39t44 -115q0 -34 -9 -78l-62 -317h-145l8 46q-41 -55 -94 -55zM144 95q13 0 25 12t16 34l16 84q-19 12 -32 12
q-12 0 -21 -9q-13 -14 -21 -46t-8 -51q0 -36 25 -36zM243 574q-55 0 -84.5 29.5t-24.5 89.5h78q0 -43 39 -43q38 0 51 43h81q-15 -59 -51.5 -89t-88.5 -30z" />
    <glyph glyph-name="Aogonek" unicode="&#x104;" horiz-adv-x="431" 
d="M376 -66l-15 -77q-24 -4 -55 -4q-97 0 -97 60q0 42 55 87h-31l5 126h-104l-44 -126h-146l269 702h172l-3 -702h-20q-29 -29 -29 -45q0 -18 43 -21zM177 253h66l10 221z" />
    <glyph glyph-name="aogonek" unicode="&#x105;" horiz-adv-x="376" 
d="M295 -66l-15 -77q-24 -4 -55 -4q-97 0 -97 60q0 42 55 87h-27l8 46q-41 -55 -94 -55q-39 0 -62 30t-23 84q0 51 17.5 108.5t49.5 89.5q35 35 85 35q39 0 81 -25l3 15q4 24 4 33q0 56 -67 56q-42 0 -97 -24l26 136q60 20 119 20q78 0 122 -39t44 -115q0 -34 -9 -78
l-62 -317h-20q-29 -29 -29 -45q0 -18 43 -21zM144 95q13 0 25 12t16 34l16 84q-19 12 -32 12q-12 0 -21 -9q-13 -14 -21 -46t-8 -51q0 -36 25 -36z" />
    <glyph glyph-name="Cacute" unicode="&#x106;" horiz-adv-x="362" 
d="M207 -7q-89 0 -138 57.5t-49 174.5q0 105 35.5 229.5t102.5 191.5q62 62 148 62q62 0 114 -28l-30 -149q-42 33 -78 33q-28 0 -53 -23q-38 -38 -63.5 -139.5t-25.5 -166.5q0 -53 18.5 -76.5t57.5 -23.5q31 0 74 18l-28 -142q-43 -18 -85 -18zM247 734l94 118l132 -42
l-120 -76h-106z" />
    <glyph glyph-name="cacute" unicode="&#x107;" horiz-adv-x="309" 
d="M187 578l102 138l117 -44l-128 -94h-91zM167 -12q-76 0 -118 49.5t-42 138.5q0 81 26.5 175.5t79.5 147.5t127 53q57 0 103 -27l-28 -140q-35 28 -62 28q-24 0 -41 -17q-28 -28 -42.5 -90t-14.5 -111q0 -71 54 -71q25 0 58 14l-26 -137q-35 -13 -74 -13z" />
    <glyph glyph-name="Cdotaccent" unicode="&#x10a;" horiz-adv-x="362" 
d="M247 736l21 110h121l-21 -110h-121zM207 -7q-89 0 -138 57.5t-49 174.5q0 105 35.5 229.5t102.5 191.5q62 62 148 62q62 0 114 -28l-30 -149q-42 33 -78 33q-28 0 -53 -23q-38 -38 -63.5 -139.5t-25.5 -166.5q0 -53 18.5 -76.5t57.5 -23.5q31 0 74 18l-28 -142
q-43 -18 -85 -18z" />
    <glyph glyph-name="cdotaccent" unicode="&#x10b;" horiz-adv-x="309" 
d="M167 -12q-76 0 -118 49.5t-42 138.5q0 81 26.5 175.5t79.5 147.5t127 53q57 0 103 -27l-28 -140q-35 28 -62 28q-24 0 -41 -17q-28 -28 -42.5 -90t-14.5 -111q0 -71 54 -71q25 0 58 14l-26 -137q-35 -13 -74 -13zM183 580l22 115h120l-22 -115h-120z" />
    <glyph glyph-name="Ccaron" unicode="&#x10c;" horiz-adv-x="362" 
d="M207 -7q-89 0 -138 57.5t-49 174.5q0 105 35.5 229.5t102.5 191.5q62 62 148 62q62 0 114 -28l-30 -149q-42 33 -78 33q-28 0 -53 -23q-38 -38 -63.5 -139.5t-25.5 -166.5q0 -53 18.5 -76.5t57.5 -23.5q31 0 74 18l-28 -142q-43 -18 -85 -18zM457 845l-95 -111h-113
l-53 111h89l33 -41l48 41h91z" />
    <glyph glyph-name="ccaron" unicode="&#x10d;" horiz-adv-x="309" 
d="M188 578l-53 128h82l36 -50l56 50h87l-104 -128h-104zM167 -12q-76 0 -118 49.5t-42 138.5q0 81 26.5 175.5t79.5 147.5t127 53q57 0 103 -27l-28 -140q-35 28 -62 28q-24 0 -41 -17q-28 -28 -42.5 -90t-14.5 -111q0 -71 54 -71q25 0 58 14l-26 -137q-35 -13 -74 -13z
" />
    <glyph glyph-name="Dcaron" unicode="&#x10e;" horiz-adv-x="446" 
d="M-25 0l136 700h101q122 0 183 -61q60 -60 60 -180q0 -94 -32.5 -208t-92.5 -174q-77 -77 -213 -77h-142zM281 546q-16 16 -46 16h-1l-82 -424h2q40 0 68 28q36 36 59.5 133.5t23.5 158.5q0 64 -24 88zM434 839l-95 -111h-113l-53 111h89l33 -41l48 41h91z" />
    <glyph glyph-name="dcaron" unicode="&#x10f;" horiz-adv-x="411" 
d="M464 563l37 147h87v-1l-67 -146h-57zM187 0l12 64q-56 -75 -107 -75q-88 0 -88 137q0 95 31 219.5t81 173.5q32 32 74 32q62 0 90 -73l45 232h146l-138 -710h-146zM177 122q11 0 19 8q20 21 39 112.5t19 132.5q0 44 -25 44q-11 0 -19 -8q-20 -21 -39 -112.5t-19 -133.5
q0 -43 25 -43z" />
    <glyph glyph-name="Dcroat" unicode="&#x110;" horiz-adv-x="460" 
d="M11 288l24 128h35l55 284h100q123 0 184 -61q60 -60 60 -180q0 -94 -32.5 -208t-92.5 -174q-77 -77 -213 -77h-142l56 288h-34zM295 546q-16 16 -46 16h-3l-29 -147h48l-24 -126h-48l-29 -151h4q40 0 68 28q36 36 59.5 133.5t23.5 158.5q0 64 -24 88z" />
    <glyph glyph-name="dcroat" unicode="&#x111;" horiz-adv-x="411" 
d="M228 576l19 94h70l8 40h146l-8 -40h28l-19 -97h-28l-111 -573h-146l12 64q-56 -75 -107 -75q-88 0 -88 137q0 95 31 219.5t81 173.5q32 32 74 32q62 0 90 -73l19 98h-71zM177 122q11 0 19 8q20 21 39 112.5t19 132.5q0 44 -25 44q-11 0 -19 -8q-20 -21 -39 -112.5
t-19 -133.5q0 -43 25 -43z" />
    <glyph glyph-name="Emacron" unicode="&#x112;" horiz-adv-x="352" 
d="M138 731l18 91h258l-18 -91h-258zM-25 0l136 700h303l-27 -142h-154l-26 -136h136l-27 -140h-137l-26 -140h156l-28 -142h-306z" />
    <glyph glyph-name="emacron" unicode="&#x113;" horiz-adv-x="381" 
d="M355 208h-208q-1 -8 -1 -18q0 -39 18 -56t55 -17q47 0 104 28l-16 -129q-54 -28 -122 -28q-86 0 -132 49.5t-46 146.5q0 73 26.5 166.5t80.5 147.5t125 54q66 0 103.5 -45t37.5 -129q0 -61 -25 -170zM126 581l18 90h247l-18 -90h-247zM204 416q-21 -21 -40 -108h75
q10 46 10 76q0 41 -25 41q-11 0 -20 -9z" />
    <glyph glyph-name="Ebreve" unicode="&#x114;" horiz-adv-x="352" 
d="M266 724q-54 0 -83.5 27.5t-21.5 80.5h78q0 -33 37 -33q34 0 47 33h81q-26 -108 -138 -108zM-25 0l136 700h303l-27 -142h-154l-26 -136h136l-27 -140h-137l-26 -140h156l-28 -142h-306z" />
    <glyph glyph-name="ebreve" unicode="&#x115;" horiz-adv-x="381" 
d="M355 208h-208q-1 -8 -1 -18q0 -39 18 -56t55 -17q47 0 104 28l-16 -129q-54 -28 -122 -28q-86 0 -132 49.5t-46 146.5q0 73 26.5 166.5t80.5 147.5t125 54q66 0 103.5 -45t37.5 -129q0 -61 -25 -170zM252 574q-55 0 -84.5 29.5t-24.5 89.5h78q0 -43 39 -43q38 0 51 43h81
q-15 -59 -51.5 -89t-88.5 -30zM204 416q-21 -21 -40 -108h75q10 46 10 76q0 41 -25 41q-11 0 -20 -9z" />
    <glyph glyph-name="Edotaccent" unicode="&#x116;" horiz-adv-x="352" 
d="M206 730l21 110h121l-21 -110h-121zM-25 0l136 700h303l-27 -142h-154l-26 -136h136l-27 -140h-137l-26 -140h156l-28 -142h-306z" />
    <glyph glyph-name="edotaccent" unicode="&#x117;" horiz-adv-x="381" 
d="M355 208h-208q-1 -8 -1 -18q0 -39 18 -56t55 -17q47 0 104 28l-16 -129q-54 -28 -122 -28q-86 0 -132 49.5t-46 146.5q0 73 26.5 166.5t80.5 147.5t125 54q66 0 103.5 -45t37.5 -129q0 -61 -25 -170zM190 580l22 115h120l-22 -115h-120zM204 416q-21 -21 -40 -108h75
q10 46 10 76q0 41 -25 41q-11 0 -20 -9z" />
    <glyph glyph-name="Eogonek" unicode="&#x118;" horiz-adv-x="352" 
d="M-25 0l136 700h303l-27 -142h-154l-26 -136h136l-27 -140h-137l-26 -140h156l-28 -142h-25q-29 -29 -29 -45q0 -18 43 -21l-15 -77q-24 -4 -55 -4q-97 0 -97 60q0 42 55 87h-183z" />
    <glyph glyph-name="eogonek" unicode="&#x119;" horiz-adv-x="381" 
d="M323 145l-15 -125q-26 -15 -46 -35q-17 -17 -17 -29q0 -19 44 -22l-15 -77q-25 -4 -56 -4q-97 0 -97 60q0 39 42 77q-156 12 -156 194q0 73 26.5 166.5t80.5 147.5t125 54q66 0 103.5 -45t37.5 -129q0 -61 -25 -170h-208q-1 -8 -1 -18q0 -39 18 -56t55 -17q47 0 104 28z
M204 416q-21 -21 -40 -108h75q10 46 10 76q0 41 -25 41q-11 0 -20 -9z" />
    <glyph glyph-name="Ecaron" unicode="&#x11a;" horiz-adv-x="352" 
d="M416 839l-95 -111h-113l-53 111h89l33 -41l48 41h91zM-25 0l136 700h303l-27 -142h-154l-26 -136h136l-27 -140h-137l-26 -140h156l-28 -142h-306z" />
    <glyph glyph-name="ecaron" unicode="&#x11b;" horiz-adv-x="381" 
d="M355 208h-208q-1 -8 -1 -18q0 -39 18 -56t55 -17q47 0 104 28l-16 -129q-54 -28 -122 -28q-86 0 -132 49.5t-46 146.5q0 73 26.5 166.5t80.5 147.5t125 54q66 0 103.5 -45t37.5 -129q0 -61 -25 -170zM195 578l-53 128h82l36 -50l56 50h87l-104 -128h-104zM204 416
q-21 -21 -40 -108h75q10 46 10 76q0 41 -25 41q-11 0 -20 -9z" />
    <glyph glyph-name="Gbreve" unicode="&#x11e;" horiz-adv-x="430" 
d="M330 730q-54 0 -83.5 27.5t-21.5 80.5h78q0 -33 37 -33q34 0 47 33h81q-26 -108 -138 -108zM227 -11q-97 0 -151.5 61.5t-54.5 179.5q0 100 35 219t105 189q72 72 170 72q77 0 130 -35l-30 -148q-54 40 -101 40q-39 0 -67 -28q-45 -45 -68 -145t-23 -166q0 -103 56 -103
q6 0 14 2l29 151h-53l26 132h189l-77 -393q-66 -28 -129 -28z" />
    <glyph glyph-name="gbreve" unicode="&#x11f;" horiz-adv-x="411" 
d="M130 -133q-81 0 -161 26l25 126q69 -29 121 -29q39 0 59 19q19 19 28 63l8 41q-55 -76 -110 -76q-87 0 -87 140q0 88 28 192t74 150q32 32 74 32q63 0 91 -73l12 63h146l-94 -485q-18 -91 -64 -137q-52 -52 -150 -52zM185 168q11 0 19 8q20 21 35.5 91.5t15.5 112.5
q0 39 -25 39q-11 0 -19 -8q-20 -21 -35.5 -91.5t-15.5 -112.5q0 -39 25 -39zM278 574q-55 0 -84.5 29.5t-24.5 89.5h78q0 -43 39 -43q38 0 51 43h81q-15 -59 -51.5 -89t-88.5 -30z" />
    <glyph glyph-name="Gdotaccent" unicode="&#x120;" horiz-adv-x="430" 
d="M271 736l21 110h121l-21 -110h-121zM227 -11q-97 0 -151.5 61.5t-54.5 179.5q0 100 35 219t105 189q72 72 170 72q77 0 130 -35l-30 -148q-54 40 -101 40q-39 0 -67 -28q-45 -45 -68 -145t-23 -166q0 -103 56 -103q6 0 14 2l29 151h-53l26 132h189l-77 -393
q-66 -28 -129 -28z" />
    <glyph glyph-name="gdotaccent" unicode="&#x121;" horiz-adv-x="411" 
d="M130 -133q-81 0 -161 26l25 126q69 -29 121 -29q39 0 59 19q19 19 28 63l8 41q-55 -76 -110 -76q-87 0 -87 140q0 88 28 192t74 150q32 32 74 32q63 0 91 -73l12 63h146l-94 -485q-18 -91 -64 -137q-52 -52 -150 -52zM185 168q11 0 19 8q20 21 35.5 91.5t15.5 112.5
q0 39 -25 39q-11 0 -19 -8q-20 -21 -35.5 -91.5t-15.5 -112.5q0 -39 25 -39zM216 580l22 115h120l-22 -115h-120z" />
    <glyph glyph-name="Gcommaaccent" unicode="&#x122;" horiz-adv-x="430" 
d="M90 -223v42q34 5 49 16t20 31h-55l18 97h116l-15 -82q-19 -94 -133 -104zM227 -11q-97 0 -151.5 61.5t-54.5 179.5q0 100 35 219t105 189q72 72 170 72q77 0 130 -35l-30 -148q-54 40 -101 40q-39 0 -67 -28q-45 -45 -68 -145t-23 -166q0 -103 56 -103q6 0 14 2l29 151
h-53l26 132h189l-77 -393q-66 -28 -129 -28z" />
    <glyph glyph-name="gcommaaccent" unicode="&#x123;" horiz-adv-x="411" 
d="M365 765v-42q-34 -5 -49 -16t-20 -31h55l-18 -97h-116l15 82q19 94 133 104zM130 -133q-81 0 -161 26l25 126q69 -29 121 -29q39 0 59 19q19 19 28 63l8 41q-55 -76 -110 -76q-87 0 -87 140q0 88 28 192t74 150q32 32 74 32q63 0 91 -73l12 63h146l-94 -485
q-18 -91 -64 -137q-52 -52 -150 -52zM185 168q11 0 19 8q20 21 35.5 91.5t15.5 112.5q0 39 -25 39q-11 0 -19 -8q-20 -21 -35.5 -91.5t-15.5 -112.5q0 -39 25 -39z" />
    <glyph glyph-name="Hbar" unicode="&#x126;" horiz-adv-x="453" 
d="M45 511l22 118h34l14 71h150l-15 -74h90l15 74h150l-14 -71h33l-22 -118h-34l-99 -511h-150l55 281h-91l-54 -281h-150l99 511h-33zM210 420h90l18 94h-90z" />
    <glyph glyph-name="hbar" unicode="&#x127;" horiz-adv-x="401" 
d="M58 573l19 97h26l8 40h146l-8 -40h72l-19 -94h-71l-19 -97q52 73 111 73q43 0 65.5 -26t22.5 -67q0 -23 -6 -53l-79 -406h-146l70 358q5 27 5 35q0 28 -24 28q-14 0 -24.5 -12t-14.5 -32l-73 -377h-146l111 573h-26z" />
    <glyph glyph-name="Imacron" unicode="&#x12a;" horiz-adv-x="209" 
d="M-23 0l136 700h150l-136 -700h-150zM66 731l18 91h258l-18 -91h-258z" />
    <glyph glyph-name="imacron" unicode="&#x12b;" horiz-adv-x="200" 
d="M-25 0l105 541h145l-105 -541h-145zM36 575l18 90h247l-18 -90h-247z" />
    <glyph glyph-name="Ibreve" unicode="&#x12c;" horiz-adv-x="209" 
d="M-23 0l136 700h150l-136 -700h-150zM194 724q-54 0 -83.5 27.5t-21.5 80.5h78q0 -33 37 -33q34 0 47 33h81q-26 -108 -138 -108z" />
    <glyph glyph-name="ibreve" unicode="&#x12d;" horiz-adv-x="200" 
d="M-25 0l105 541h145l-105 -541h-145zM162 568q-55 0 -84.5 29.5t-24.5 89.5h78q0 -43 39 -43q38 0 51 43h81q-15 -59 -51.5 -89t-88.5 -30z" />
    <glyph glyph-name="Iogonek" unicode="&#x12e;" horiz-adv-x="209" 
d="M-23 0l136 700h150l-136 -700h-22q-29 -29 -29 -45q0 -18 43 -21l-15 -77q-24 -4 -55 -4q-97 0 -97 60q0 41 55 87h-30z" />
    <glyph glyph-name="iogonek" unicode="&#x12f;" horiz-adv-x="200" 
d="M-25 0l105 541h145l-105 -541h-19q-29 -29 -29 -45q0 -18 43 -21l-15 -77q-24 -4 -55 -4q-97 0 -97 60q0 41 55 87h-28zM87 582l25 128h147l-25 -128h-147z" />
    <glyph glyph-name="Idotaccent" unicode="&#x130;" horiz-adv-x="209" 
d="M-23 0l136 700h150l-136 -700h-150zM134 730l21 110h121l-21 -110h-121z" />
    <glyph glyph-name="dotlessi" unicode="&#x131;" horiz-adv-x="200" 
d="M-25 0l105 541h145l-105 -541h-145z" />
    <glyph glyph-name="Kcommaaccent" unicode="&#x136;" horiz-adv-x="426" 
d="M69 -220v42q34 5 49 16t20 31h-55l18 97h116l-15 -82q-19 -94 -133 -104zM-25 0l136 700h150l-51 -263l135 263h160l-173 -313l37 -387h-156l-14 250l-40 -71l-34 -179h-150z" />
    <glyph glyph-name="kcommaaccent" unicode="&#x137;" horiz-adv-x="386" 
d="M43 -220v42q34 5 49 16t20 31h-55l18 97h116l-15 -82q-19 -94 -133 -104zM-27 0l138 710h146l-67 -341l96 172h156l-137 -231l28 -310h-149l-8 196l-29 -49l-28 -147h-146z" />
    <glyph glyph-name="Lacute" unicode="&#x139;" horiz-adv-x="322" 
d="M143 728l94 118l132 -42l-120 -76h-106zM-25 0l136 700h150l-108 -558h133l-28 -142h-283z" />
    <glyph glyph-name="lacute" unicode="&#x13a;" horiz-adv-x="200" 
d="M137 737l94 118l132 -42l-120 -76h-106zM-25 0l138 710h145l-138 -710h-145z" />
    <glyph glyph-name="Lcommaaccent" unicode="&#x13b;" horiz-adv-x="322" 
d="M19 -220v42q34 5 49 16t20 31h-55l18 97h116l-15 -82q-19 -94 -133 -104zM-25 0l136 700h150l-108 -558h133l-28 -142h-283z" />
    <glyph glyph-name="lcommaaccent" unicode="&#x13c;" horiz-adv-x="200" 
d="M-49 -220v42q34 5 49 16t20 31h-55l18 97h116l-15 -82q-19 -94 -133 -104zM-25 0l138 710h145l-138 -710h-145z" />
    <glyph glyph-name="Lcaron" unicode="&#x13d;" horiz-adv-x="322" 
d="M251 554l37 147h87v-1l-67 -146h-57zM-25 0l136 700h150l-108 -558h133l-28 -142h-283z" />
    <glyph glyph-name="lcaron" unicode="&#x13e;" horiz-adv-x="200" 
d="M253 563l37 147h87v-1l-67 -146h-57zM-25 0l138 710h145l-138 -710h-145z" />
    <glyph glyph-name="Ldot" unicode="&#x13f;" horiz-adv-x="322" 
d="M215 306l27 136h110l-27 -136h-110zM-25 0l136 700h150l-108 -558h133l-28 -142h-283z" />
    <glyph glyph-name="ldot" unicode="&#x140;" horiz-adv-x="309" 
d="M205 288l27 135h105l-27 -135h-105zM-25 0l138 710h145l-138 -710h-145z" />
    <glyph glyph-name="Lslash" unicode="&#x141;" horiz-adv-x="345" 
d="M-2 225l30 149l35 13l61 313h150l-48 -250l86 34l-30 -147l-85 -34l-31 -161h133l-28 -142h-283l46 239z" />
    <glyph glyph-name="lslash" unicode="&#x142;" horiz-adv-x="241" 
d="M-2 228l27 142l46 21l62 319h145l-48 -246l48 22l-28 -142l-48 -22l-62 -322h-145l48 249z" />
    <glyph glyph-name="Nacute" unicode="&#x143;" horiz-adv-x="452" 
d="M253 726l94 118l132 -42l-120 -76h-106zM-25 0l136 700h141l49 -323l63 323h144l-136 -700h-136l-51 340l-66 -340h-144z" />
    <glyph glyph-name="nacute" unicode="&#x144;" horiz-adv-x="401" 
d="M203 578l102 138l117 -44l-128 -94h-91zM-27 0l105 541h146l-12 -62q52 73 111 73q43 0 65.5 -26t22.5 -67q0 -23 -6 -53l-79 -406h-146l70 358q5 27 5 35q0 28 -24 28q-14 0 -24.5 -12t-14.5 -32l-73 -377h-146z" />
    <glyph glyph-name="Ncommaaccent" unicode="&#x145;" horiz-adv-x="452" 
d="M74 -220v42q34 5 49 16t20 31h-55l18 97h116l-15 -82q-19 -94 -133 -104zM-25 0l136 700h141l49 -323l63 323h144l-136 -700h-136l-51 340l-66 -340h-144z" />
    <glyph glyph-name="ncommaaccent" unicode="&#x146;" horiz-adv-x="401" 
d="M48 -220v42q34 5 49 16t20 31h-55l18 97h116l-15 -82q-19 -94 -133 -104zM-27 0l105 541h146l-12 -62q52 73 111 73q43 0 65.5 -26t22.5 -67q0 -23 -6 -53l-79 -406h-146l70 358q5 27 5 35q0 28 -24 28q-14 0 -24.5 -12t-14.5 -32l-73 -377h-146z" />
    <glyph glyph-name="Ncaron" unicode="&#x147;" horiz-adv-x="452" 
d="M462 837l-95 -111h-113l-53 111h89l33 -41l48 41h91zM-25 0l136 700h141l49 -323l63 323h144l-136 -700h-136l-51 340l-66 -340h-144z" />
    <glyph glyph-name="ncaron" unicode="&#x148;" horiz-adv-x="401" 
d="M203 578l-53 128h82l36 -50l56 50h87l-104 -128h-104zM-27 0l105 541h146l-12 -62q52 73 111 73q43 0 65.5 -26t22.5 -67q0 -23 -6 -53l-79 -406h-146l70 358q5 27 5 35q0 28 -24 28q-14 0 -24.5 -12t-14.5 -32l-73 -377h-146z" />
    <glyph glyph-name="Omacron" unicode="&#x14c;" horiz-adv-x="449" 
d="M185 737l18 91h258l-18 -91h-258zM292 712q84 0 127.5 -57.5t43.5 -156.5q0 -108 -36.5 -247t-103.5 -206q-57 -57 -136 -57q-84 0 -127.5 57.5t-43.5 156.5q0 107 37 246.5t104 206.5q56 57 135 57zM197 124q12 0 26 12q31 31 61.5 173t30.5 210q0 57 -33 57
q-12 0 -26 -12q-31 -31 -61.5 -173t-30.5 -210q0 -57 33 -57z" />
    <glyph glyph-name="omacron" unicode="&#x14d;" horiz-adv-x="402" 
d="M138 581l18 90h247l-18 -90h-247zM240 552q75 0 115 -49.5t40 -135.5q0 -78 -26.5 -175t-79.5 -150q-54 -54 -128 -54t-114 49.5t-40 135.5q0 78 26.5 175t79.5 150q56 54 127 54zM172 115q11 0 20 9q22 22 42 116.5t20 140.5q0 44 -25 44q-10 0 -19 -9
q-22 -22 -42.5 -117t-20.5 -140q0 -44 25 -44z" />
    <glyph glyph-name="Obreve" unicode="&#x14e;" horiz-adv-x="449" 
d="M313 730q-54 0 -83.5 27.5t-21.5 80.5h78q0 -33 37 -33q33 0 47 33h81q-26 -108 -138 -108zM292 712q84 0 127.5 -57.5t43.5 -156.5q0 -108 -36.5 -247t-103.5 -206q-57 -57 -136 -57q-84 0 -127.5 57.5t-43.5 156.5q0 107 37 246.5t104 206.5q56 57 135 57zM197 124
q12 0 26 12q31 31 61.5 173t30.5 210q0 57 -33 57q-12 0 -26 -12q-31 -31 -61.5 -173t-30.5 -210q0 -57 33 -57z" />
    <glyph glyph-name="obreve" unicode="&#x14f;" horiz-adv-x="402" 
d="M240 552q75 0 115 -49.5t40 -135.5q0 -78 -26.5 -175t-79.5 -150q-54 -54 -128 -54t-114 49.5t-40 135.5q0 78 26.5 175t79.5 150q56 54 127 54zM172 115q11 0 20 9q22 22 42 116.5t20 140.5q0 44 -25 44q-10 0 -19 -9q-22 -22 -42.5 -117t-20.5 -140q0 -44 25 -44z
M264 574q-55 0 -84.5 29.5t-24.5 89.5h78q0 -43 39 -43q38 0 51 43h81q-15 -59 -51.5 -89t-88.5 -30z" />
    <glyph glyph-name="Ohungarumlaut" unicode="&#x150;" horiz-adv-x="449" 
d="M292 712q84 0 127.5 -57.5t43.5 -156.5q0 -108 -36.5 -247t-103.5 -206q-57 -57 -136 -57q-84 0 -127.5 57.5t-43.5 156.5q0 107 37 246.5t104 206.5q56 57 135 57zM197 124q12 0 26 12q31 31 61.5 173t30.5 210q0 57 -33 57q-12 0 -26 -12q-31 -31 -61.5 -173
t-30.5 -210q0 -57 33 -57zM321 734l49 62l-90 -62h-95l94 118l106 -37l29 37l115 -40l-113 -78h-95z" />
    <glyph glyph-name="ohungarumlaut" unicode="&#x151;" horiz-adv-x="402" 
d="M240 552q75 0 115 -49.5t40 -135.5q0 -78 -26.5 -175t-79.5 -150q-54 -54 -128 -54t-114 49.5t-40 135.5q0 78 26.5 175t79.5 150q56 54 127 54zM264 578l53 73l-91 -73h-82l101 138l92 -38l28 38l101 -42l-120 -96h-82zM172 115q11 0 20 9q22 22 42 116.5t20 140.5
q0 44 -25 44q-10 0 -19 -9q-22 -22 -42.5 -117t-20.5 -140q0 -44 25 -44z" />
    <glyph glyph-name="OE" unicode="&#x152;" horiz-adv-x="594" 
d="M265 0q-123 0 -183 60q-59 61 -59 180q0 94 32.5 208.5t92.5 174.5q77 77 213 77h295l-27 -142h-154l-26 -136h136l-27 -140h-137l-26 -140h156l-28 -142h-258zM196 154q17 -16 47 -16h1l82 424h-3q-39 0 -68 -28q-36 -36 -59 -134t-23 -158q0 -64 23 -88z" />
    <glyph glyph-name="oe" unicode="&#x153;" horiz-adv-x="607" 
d="M582 208h-209q-1 -8 -1 -18q0 -39 18 -56t55 -17q46 0 105 28l-16 -129q-54 -28 -122 -28q-95 0 -132 65q-53 -65 -124 -65q-73 0 -111 49t-38 136q0 77 27.5 174.5t80.5 150.5q54 54 126 54q75 0 108 -65q53 65 126 65q64 0 97.5 -44.5t33.5 -129.5q0 -58 -24 -170z
M172 115q11 0 20 9q22 22 41.5 117.5t19.5 139.5t-24 44q-10 0 -19 -9q-22 -22 -42 -117.5t-20 -139.5t24 -44zM431 416q-22 -22 -41 -108h76q10 53 10 76q0 41 -25 41q-12 0 -20 -9z" />
    <glyph glyph-name="Racute" unicode="&#x154;" horiz-adv-x="422" 
d="M211 0l-29 229q-2 0 -4.5 -0.5t-3.5 -0.5h-6l-44 -228h-149l136 700h107q128 0 183 -55q49 -49 49 -135q0 -123 -75 -198q-21 -20 -49 -37l40 -275h-155zM192 354h5q37 0 61 23q18 19 28.5 54.5t10.5 68.5q0 34 -17 51q-15 15 -42 15h-4zM224 728l94 118l132 -42
l-120 -76h-106z" />
    <glyph glyph-name="racute" unicode="&#x155;" horiz-adv-x="265" 
d="M138 572l102 138l117 -44l-128 -94h-91zM-27 0l105 541h145l-16 -78q43 88 103 84l-33 -174h-3q-82 0 -104 -112l-51 -261h-146z" />
    <glyph glyph-name="Rcommaaccent" unicode="&#x156;" horiz-adv-x="422" 
d="M211 0l-29 229q-2 0 -4.5 -0.5t-3.5 -0.5h-6l-44 -228h-149l136 700h107q128 0 183 -55q49 -49 49 -135q0 -123 -75 -198q-21 -20 -49 -37l40 -275h-155zM51 -220v42q34 5 49 16t20 31h-55l18 97h116l-15 -82q-19 -94 -133 -104zM192 354h5q37 0 61 23q18 19 28.5 54.5
t10.5 68.5q0 34 -17 51q-15 15 -42 15h-4z" />
    <glyph glyph-name="rcommaaccent" unicode="&#x157;" horiz-adv-x="265" 
d="M-48 -220v42q34 5 49 16t20 31h-55l18 97h116l-15 -82q-19 -94 -133 -104zM-27 0l105 541h145l-16 -78q43 88 103 84l-33 -174h-3q-82 0 -104 -112l-51 -261h-146z" />
    <glyph glyph-name="Rcaron" unicode="&#x158;" horiz-adv-x="422" 
d="M211 0l-29 229q-2 0 -4.5 -0.5t-3.5 -0.5h-6l-44 -228h-149l136 700h107q128 0 183 -55q49 -49 49 -135q0 -123 -75 -198q-21 -20 -49 -37l40 -275h-155zM432 839l-95 -111h-113l-53 111h89l33 -41l48 41h91zM192 354h5q37 0 61 23q18 19 28.5 54.5t10.5 68.5
q0 34 -17 51q-15 15 -42 15h-4z" />
    <glyph glyph-name="rcaron" unicode="&#x159;" horiz-adv-x="265" 
d="M139 572l-53 128h82l36 -50l56 50h87l-104 -128h-104zM-27 0l105 541h145l-16 -78q43 88 103 84l-33 -174h-3q-82 0 -104 -112l-51 -261h-146z" />
    <glyph glyph-name="Sacute" unicode="&#x15a;" horiz-adv-x="359" 
d="M130 -8q-83 0 -154 48l29 149q75 -55 122 -55q27 0 43 17t16 45q0 31 -45 94q-44 58 -65.5 102.5t-21.5 96.5q0 101 62 163q56 56 142 56q78 0 140 -40l-29 -148q-61 46 -107 46q-26 0 -41.5 -16t-15.5 -41q0 -36 41 -91q49 -65 70.5 -108.5t21.5 -93.5q0 -103 -66 -169
q-55 -55 -142 -55zM208 734l94 118l132 -42l-120 -76h-106z" />
    <glyph glyph-name="sacute" unicode="&#x15b;" horiz-adv-x="307" 
d="M155 578l102 138l117 -44l-128 -94h-91zM110 -11q-81 0 -139 44l27 135q65 -50 104 -50q18 0 28 10t10 26q0 22 -38 72q-37 46 -53 79t-16 74q0 74 45.5 123t122.5 49q68 0 124 -33l-27 -134q-55 38 -91 38q-17 0 -26.5 -9t-9.5 -22q0 -20 38 -70q70 -84 70 -152
q0 -76 -46 -128t-123 -52z" />
    <glyph glyph-name="Scedilla" unicode="&#x15e;" horiz-adv-x="359" 
d="M113 -129l-125 35l83 92q-49 11 -95 42l29 149q75 -55 122 -55q27 0 43 17t16 45q0 31 -45 94q-44 58 -65.5 102.5t-21.5 96.5q0 101 62 163q56 56 142 56q78 0 140 -40l-29 -148q-61 46 -107 46q-26 0 -41.5 -16t-15.5 -41q0 -36 41 -91q49 -65 70.5 -108.5t21.5 -93.5
q0 -103 -66 -169q-41 -41 -99 -51z" />
    <glyph glyph-name="scedilla" unicode="&#x15f;" horiz-adv-x="307" 
d="M88 -129l-125 35l83 92q-45 12 -75 35l27 135q65 -50 104 -50q18 0 28 10t10 26q0 22 -38 72q-37 46 -53 79t-16 74q0 74 45.5 123t122.5 49q68 0 124 -33l-27 -134q-55 38 -91 38q-17 0 -26.5 -9t-9.5 -22q0 -20 38 -70q70 -84 70 -152q0 -66 -36 -115t-97 -61z" />
    <glyph glyph-name="Scaron" unicode="&#x160;" horiz-adv-x="359" 
d="M130 -8q-83 0 -154 48l29 149q75 -55 122 -55q27 0 43 17t16 45q0 31 -45 94q-44 58 -65.5 102.5t-21.5 96.5q0 101 62 163q56 56 142 56q78 0 140 -40l-29 -148q-61 46 -107 46q-26 0 -41.5 -16t-15.5 -41q0 -36 41 -91q49 -65 70.5 -108.5t21.5 -93.5q0 -103 -66 -169
q-55 -55 -142 -55zM416 845l-95 -111h-113l-53 111h89l33 -41l48 41h91z" />
    <glyph glyph-name="scaron" unicode="&#x161;" horiz-adv-x="307" 
d="M155 578l-53 128h82l36 -50l56 50h87l-104 -128h-104zM110 -11q-81 0 -139 44l27 135q65 -50 104 -50q18 0 28 10t10 26q0 22 -38 72q-37 46 -53 79t-16 74q0 74 45.5 123t122.5 49q68 0 124 -33l-27 -134q-55 38 -91 38q-17 0 -26.5 -9t-9.5 -22q0 -20 38 -70
q70 -84 70 -152q0 -76 -46 -128t-123 -52z" />
    <glyph glyph-name="Tcommaaccent" unicode="&#x162;" horiz-adv-x="356" 
d="M29 -220v42q34 5 49 16t20 31h-55l18 97h116l-15 -82q-19 -94 -133 -104zM50 0l109 557h-92l28 143h334l-28 -143h-92l-109 -557h-150z" />
    <glyph glyph-name="tcommaaccent" unicode="&#x163;" horiz-adv-x="259" 
d="M-4 -223v42q34 5 49 16t20 31h-55l18 97h116l-15 -82q-19 -94 -133 -104zM117 -8q-48 0 -78 23t-30 69q0 19 7 54l55 286h-30l22 117h31l25 132h145l-25 -132h61l-22 -117h-62l-48 -243q-1 -4 -2.5 -14t-3 -18t-1.5 -12q0 -21 26 -21q15 0 31 5l-22 -116q-36 -13 -79 -13
z" />
    <glyph glyph-name="Tcaron" unicode="&#x164;" horiz-adv-x="356" 
d="M418 839l-95 -111h-113l-53 111h89l33 -41l48 41h91zM50 0l109 557h-92l28 143h334l-28 -143h-92l-109 -557h-150z" />
    <glyph glyph-name="tcaron" unicode="&#x165;" horiz-adv-x="259" 
d="M263 563l37 147h87v-1l-67 -146h-57zM117 -8q-48 0 -78 23t-30 69q0 19 7 54l55 286h-30l22 117h31l25 132h145l-25 -132h61l-22 -117h-62l-48 -243q-1 -4 -2.5 -14t-3 -18t-1.5 -12q0 -21 26 -21q15 0 31 5l-22 -116q-36 -13 -79 -13z" />
    <glyph glyph-name="Umacron" unicode="&#x16a;" horiz-adv-x="437" 
d="M178 729l18 91h258l-18 -91h-258zM182 -10q-80 0 -126 42.5t-46 115.5q0 38 8 81l91 471h149l-93 -477q-7 -40 -7 -56q0 -19 10 -29t26 -10q18 0 30 12q14 14 23 54l98 506h150l-97 -501q-21 -104 -71 -154q-55 -55 -145 -55z" />
    <glyph glyph-name="umacron" unicode="&#x16b;" horiz-adv-x="401" 
d="M78 -11q-43 0 -65 26t-22 67q0 20 5 53l79 406h146l-70 -358q-5 -27 -5 -35q0 -28 24 -28q14 0 24.5 12t14.5 32l73 377h146l-105 -541h-146l12 62q-51 -73 -111 -73zM134 573l18 90h247l-18 -90h-247z" />
    <glyph glyph-name="Ubreve" unicode="&#x16c;" horiz-adv-x="437" 
d="M306 719q-54 0 -83.5 27.5t-21.5 80.5h78q0 -33 37 -33q34 0 47 33h81q-26 -108 -138 -108zM182 -10q-80 0 -126 42.5t-46 115.5q0 38 8 81l91 471h149l-93 -477q-7 -40 -7 -56q0 -19 10 -29t26 -10q18 0 30 12q14 14 23 54l98 506h150l-97 -501q-21 -104 -71 -154
q-55 -55 -145 -55z" />
    <glyph glyph-name="ubreve" unicode="&#x16d;" horiz-adv-x="401" 
d="M78 -11q-43 0 -65 26t-22 67q0 20 5 53l79 406h146l-70 -358q-5 -27 -5 -35q0 -28 24 -28q14 0 24.5 12t14.5 32l73 377h146l-105 -541h-146l12 62q-51 -73 -111 -73zM260 564q-55 0 -84.5 29.5t-24.5 89.5h78q0 -43 39 -43q38 0 51 43h81q-15 -59 -51.5 -89t-88.5 -30z
" />
    <glyph glyph-name="Uring" unicode="&#x16e;" horiz-adv-x="437" 
d="M182 -10q-80 0 -126 42.5t-46 115.5q0 38 8 81l91 471h149l-93 -477q-7 -40 -7 -56q0 -19 10 -29t26 -10q18 0 30 12q14 14 23 54l98 506h150l-97 -501q-21 -104 -71 -154q-55 -55 -145 -55zM331 900q37 0 63 -22.5t26 -57.5q0 -43 -31 -72t-77 -29q-37 0 -62.5 22.5
t-25.5 56.5q0 44 30.5 73t76.5 29zM317 766q21 0 35 14t14 35q0 17 -11 27.5t-28 10.5q-21 0 -35 -14.5t-14 -34.5q0 -17 11 -27.5t28 -10.5z" />
    <glyph glyph-name="uring" unicode="&#x16f;" horiz-adv-x="401" 
d="M368 668q0 -41 -28.5 -73t-74.5 -32q-36 0 -60 23t-24 59q0 42 29 74t75 32q36 0 59.5 -23t23.5 -60zM234 648q0 -16 9.5 -27t25.5 -11q20 0 33.5 16t13.5 39q0 17 -9.5 27.5t-26.5 10.5q-20 0 -33 -15.5t-13 -39.5zM78 -11q-43 0 -65 26t-22 67q0 20 5 53l79 406h146
l-70 -358q-5 -27 -5 -35q0 -28 24 -28q14 0 24.5 12t14.5 32l73 377h146l-105 -541h-146l12 62q-51 -73 -111 -73z" />
    <glyph glyph-name="Uhungarumlaut" unicode="&#x170;" horiz-adv-x="437" 
d="M182 -10q-80 0 -126 42.5t-46 115.5q0 38 8 81l91 471h149l-93 -477q-7 -40 -7 -56q0 -19 10 -29t26 -10q18 0 30 12q14 14 23 54l98 506h150l-97 -501q-21 -104 -71 -154q-55 -55 -145 -55zM314 726l49 62l-90 -62h-95l94 118l106 -37l29 37l115 -40l-113 -78h-95z" />
    <glyph glyph-name="uhungarumlaut" unicode="&#x171;" horiz-adv-x="401" 
d="M78 -11q-43 0 -65 26t-22 67q0 20 5 53l79 406h146l-70 -358q-5 -27 -5 -35q0 -28 24 -28q14 0 24.5 12t14.5 32l73 377h146l-105 -541h-146l12 62q-51 -73 -111 -73zM259 570l53 73l-91 -73h-82l101 138l92 -38l28 38l101 -42l-120 -96h-82z" />
    <glyph glyph-name="Uogonek" unicode="&#x172;" horiz-adv-x="437" 
d="M232 -66l-15 -77q-24 -4 -55 -4q-97 0 -97 60q0 41 53 86q-51 14 -79.5 53t-28.5 96q0 38 8 81l91 471h149l-93 -477q-7 -40 -7 -56q0 -19 10 -29t26 -10q18 0 30 12q14 14 23 54l98 506h150l-97 -501q-21 -104 -71 -154q-45 -45 -117 -53q-21 -24 -21 -37q0 -18 43 -21z
" />
    <glyph glyph-name="uogonek" unicode="&#x173;" horiz-adv-x="401" 
d="M78 -11q-43 0 -65 26t-22 67q0 20 5 53l79 406h146l-70 -358q-5 -27 -5 -35q0 -28 24 -28q14 0 24.5 12t14.5 32l73 377h146l-105 -541h-20q-29 -29 -29 -45q0 -18 43 -21l-15 -77q-24 -4 -55 -4q-97 0 -97 60q0 42 55 87h-28l12 62q-51 -73 -111 -73z" />
    <glyph glyph-name="Wcircumflex" unicode="&#x174;" horiz-adv-x="630" 
d="M55 -2l28 702h153l-34 -403l131 403h129l-26 -403l122 403h155l-244 -702h-156l17 353l-118 -353h-157zM270 728l95 111h113l53 -111h-88l-33 41l-48 -41h-92z" />
    <glyph glyph-name="wcircumflex" unicode="&#x175;" horiz-adv-x="549" 
d="M200 572l104 128h104l53 -128h-82l-36 51l-56 -51h-87zM47 -2l9 543h143l-19 -280l90 280h113l-18 -280l88 280h145l-201 -543h-132l5 258l-90 -258h-133z" />
    <glyph glyph-name="Ycircumflex" unicode="&#x176;" horiz-adv-x="409" 
d="M77 0l51 261l-48 439h149l9 -247l105 247h152l-218 -439l-51 -261h-149zM156 726l95 111h113l53 -111h-88l-33 41l-48 -41h-92z" />
    <glyph glyph-name="ycircumflex" unicode="&#x177;" horiz-adv-x="383" 
d="M67 11l-13 530h144l-13 -299l104 299h145l-284 -671h-143zM114 570l104 128h104l53 -128h-82l-36 51l-56 -51h-87z" />
    <glyph glyph-name="Ydieresis" unicode="&#x178;" horiz-adv-x="409" 
d="M77 0l51 261l-48 439h149l9 -247l105 247h152l-218 -439l-51 -261h-149zM156 728l21 110h116l-21 -110h-116zM307 728l21 110h116l-21 -110h-116z" />
    <glyph glyph-name="Zacute" unicode="&#x179;" horiz-adv-x="356" 
d="M-35 0l25 126l235 432h-149l27 142h319l-25 -126l-234 -432h154l-28 -142h-324zM206 728l94 118l132 -42l-120 -76h-106z" />
    <glyph glyph-name="zacute" unicode="&#x17a;" horiz-adv-x="315" 
d="M158 572l102 138l117 -44l-128 -94h-91zM-41 0l21 110l193 309h-132l23 122h293l-21 -109l-193 -310h136l-24 -122h-296z" />
    <glyph glyph-name="Zdotaccent" unicode="&#x17b;" horiz-adv-x="356" 
d="M204 730l21 110h121l-21 -110h-121zM-35 0l25 126l235 432h-149l27 142h319l-25 -126l-234 -432h154l-28 -142h-324z" />
    <glyph glyph-name="zdotaccent" unicode="&#x17c;" horiz-adv-x="315" 
d="M-41 0l21 110l193 309h-132l23 122h293l-21 -109l-193 -310h136l-24 -122h-296zM153 574l22 115h120l-22 -115h-120z" />
    <glyph glyph-name="Zcaron" unicode="&#x17d;" horiz-adv-x="356" 
d="M414 839l-95 -111h-113l-53 111h89l33 -41l48 41h91zM-35 0l25 126l235 432h-149l27 142h319l-25 -126l-234 -432h154l-28 -142h-324z" />
    <glyph glyph-name="zcaron" unicode="&#x17e;" horiz-adv-x="315" 
d="M158 572l-53 128h82l36 -50l56 50h87l-104 -128h-104zM-41 0l21 110l193 309h-132l23 122h293l-21 -109l-193 -310h136l-24 -122h-296z" />
    <glyph glyph-name="Aringacute" unicode="&#x1fa;" horiz-adv-x="431" 
d="M-56 0l268 699q-6 13 -6 30q0 42 31 71t77 29q37 0 62.5 -22.5t25.5 -57.5q0 -30 -17 -55l-3 -694h-149l5 126h-104l-44 -126h-146zM275 844l84 100l133 -38l-112 -62h-105zM177 253h66l10 221zM299 694q21 0 35.5 14t14.5 35q0 17 -11 28t-29 11q-21 0 -35 -14.5
t-14 -35.5q0 -17 11 -27.5t28 -10.5z" />
    <glyph glyph-name="aringacute" unicode="&#x1fb;" horiz-adv-x="376" 
d="M228 780l91 108l121 -37l-116 -71h-96zM70 -9q-39 0 -62 30t-23 84q0 51 17.5 108.5t49.5 89.5q35 35 85 35q39 0 81 -25l3 15q4 24 4 33q0 56 -67 56q-42 0 -97 -24l26 136q60 20 119 20q78 0 122 -39t44 -115q0 -34 -9 -78l-62 -317h-145l8 46q-41 -55 -94 -55zM144 95
q13 0 25 12t16 34l16 84q-19 12 -32 12q-12 0 -21 -9q-13 -14 -21 -46t-8 -51q0 -36 25 -36zM351 678q0 -41 -28.5 -73t-74.5 -32q-36 0 -60 23t-24 59q0 42 29 74t75 32q36 0 59.5 -23t23.5 -60zM217 658q0 -16 9.5 -27t25.5 -11q20 0 33.5 16t13.5 39q0 17 -9.5 27.5
t-26.5 10.5q-20 0 -33 -15.5t-13 -39.5z" />
    <glyph glyph-name="AEacute" unicode="&#x1fc;" horiz-adv-x="587" 
d="M356 728l94 118l132 -42l-120 -76h-106zM-59 0l304 700h405l-28 -142h-153l-27 -136h137l-28 -140h-136l-27 -140h157l-28 -142h-307l25 126h-98l-51 -126h-145zM185 253h74l59 301h-10z" />
    <glyph glyph-name="aeacute" unicode="&#x1fd;" horiz-adv-x="570" 
d="M373 -11q-110 0 -149 82q-58 -80 -132 -80q-49 0 -78 31.5t-29 87.5q0 51 17.5 106t49.5 87q35 35 85 35q39 0 81 -25l3 15q4 24 4 33q0 56 -67 56q-42 0 -97 -24l26 136q60 20 120 20q84 0 120 -52q47 55 112 55q62 0 96 -45t34 -129q0 -61 -25 -170h-208q-1 -8 -1 -18
q0 -39 18 -56t55 -17q47 0 104 28l-16 -129q-52 -27 -123 -27zM277 572l102 138l117 -44l-128 -94h-91zM148 99q31 0 56 46q-2 43 2 81q-20 13 -37 13q-12 0 -21 -9q-12 -13 -20.5 -42t-8.5 -50q0 -39 29 -39zM393 416q-21 -21 -40 -108h75q10 46 10 76q0 41 -25 41
q-11 0 -20 -9z" />
    <glyph glyph-name="Oslashacute" unicode="&#x1fe;" horiz-adv-x="448" 
d="M292 712q75 0 118 -48l27 41h72l-64 -98q18 -51 18 -110q0 -107 -36.5 -246t-103.5 -206q-57 -57 -136 -57q-74 0 -119 48l-26 -41h-72l64 97q-18 46 -18 111q0 107 37 246t104 206q56 57 135 57zM254 567q-24 -23 -46.5 -106.5t-36.5 -177.5l147 256q-4 41 -36 41
q-13 0 -28 -13zM197 120q13 0 28 13q23 23 45.5 105.5t36.5 175.5l-146 -256q5 -38 36 -38zM254 734l94 118l132 -42l-120 -76h-106z" />
    <glyph glyph-name="oslashacute" unicode="&#x1ff;" horiz-adv-x="402" 
d="M240 552q69 0 110 -44l27 37h69l-66 -88q15 -39 15 -90q0 -78 -26.5 -175t-79.5 -150q-54 -54 -128 -54q-71 0 -110 44l-26 -37h-69l65 88q-14 40 -14 90q0 78 26.5 175t79.5 150q56 54 127 54zM206 578l102 138l117 -44l-128 -94h-91zM194 121q34 34 59 182l-111 -164
q6 -28 30 -28q12 0 22 10zM230 429q-13 0 -23 -10q-33 -33 -58 -181l110 163q-6 28 -29 28z" />
    <glyph glyph-name="Scommaaccent" unicode="&#x218;" horiz-adv-x="359" 
d="M25 -223v42q34 5 49 16t20 31h-55l18 97h116l-15 -82q-19 -94 -133 -104zM130 -8q-83 0 -154 48l29 149q75 -55 122 -55q27 0 43 17t16 45q0 31 -45 94q-44 58 -65.5 102.5t-21.5 96.5q0 101 62 163q56 56 142 56q78 0 140 -40l-29 -148q-61 46 -107 46q-26 0 -41.5 -16
t-15.5 -41q0 -36 41 -91q49 -65 70.5 -108.5t21.5 -93.5q0 -103 -66 -169q-55 -55 -142 -55z" />
    <glyph glyph-name="scommaaccent" unicode="&#x219;" horiz-adv-x="307" 
d="M-3 -220v42q34 5 49 16t20 31h-55l18 97h116l-15 -82q-19 -94 -133 -104zM110 -11q-81 0 -139 44l27 135q65 -50 104 -50q18 0 28 10t10 26q0 22 -38 72q-37 46 -53 79t-16 74q0 74 45.5 123t122.5 49q68 0 124 -33l-27 -134q-55 38 -91 38q-17 0 -26.5 -9t-9.5 -22
q0 -20 38 -70q70 -84 70 -152q0 -76 -46 -128t-123 -52z" />
    <glyph glyph-name="schwa" unicode="&#x259;" horiz-adv-x="381" 
d="M0 161q0 61 25 170h207q2 16 2 18q0 39 -18 56t-55 17q-47 0 -104 -28l16 129q54 28 122 28q86 0 132 -49.5t46 -146.5q0 -73 -26.5 -166.5t-80.5 -147.5t-125 -54q-66 0 -103.5 45t-37.5 129zM176 123q21 21 40 108h-75q-10 -46 -10 -76q0 -41 25 -41q11 0 20 9z" />
    <glyph glyph-name="circumflex" unicode="&#x2c6;" 
d="M177 572l104 128h104l53 -128h-82l-36 51l-56 -51h-87z" />
    <glyph glyph-name="caron" unicode="&#x2c7;" 
d="M256 572l-53 128h82l36 -50l56 50h87l-104 -128h-104z" />
    <glyph glyph-name="breve" unicode="&#x2d8;" 
d="M315 568q-55 0 -84.5 29.5t-24.5 89.5h78q0 -43 39 -43q38 0 51 43h81q-15 -59 -51.5 -89t-88.5 -30z" />
    <glyph glyph-name="dotaccent" unicode="&#x2d9;" 
d="M249 574l22 115h120l-22 -115h-120z" />
    <glyph glyph-name="ring" unicode="&#x2da;" 
d="M418 672q0 -41 -28.5 -73t-74.5 -32q-36 0 -60 23t-24 59q0 42 29 74t75 32q36 0 59.5 -23t23.5 -60zM284 652q0 -16 9.5 -27t25.5 -11q20 0 33.5 16t13.5 39q0 17 -9.5 27.5t-26.5 10.5q-20 0 -33 -15.5t-13 -39.5z" />
    <glyph glyph-name="ogonek" unicode="&#x2db;" 
d="M265 -66l-15 -77q-24 -4 -55 -4q-97 0 -97 60q0 27 20 52t64 57l84 -7q-44 -44 -44 -60q0 -18 43 -21z" />
    <glyph glyph-name="tilde" unicode="&#x2dc;" 
d="M403 698l69 -14q-31 -114 -94 -114q-17 0 -59 17q-35 15 -46 15q-12 0 -20 -8t-16 -28l-69 14q31 114 94 114q19 0 59 -17q35 -15 46 -15q12 0 20 8t16 28z" />
    <glyph glyph-name="hungarumlaut" unicode="&#x2dd;" 
d="M276 572l53 73l-91 -73h-82l101 138l92 -38l28 38l101 -42l-120 -96h-82z" />
    <glyph glyph-name="commaaccent" unicode="&#x326;" 
d="M103 -220v42q34 5 49 16t20 31h-55l18 97h116l-15 -82q-19 -94 -133 -104z" />
    <glyph glyph-name="Wgrave" unicode="&#x1e80;" horiz-adv-x="630" 
d="M349 728l-96 76l135 42l62 -118h-101zM55 -2l28 702h153l-34 -403l131 403h129l-26 -403l122 403h155l-244 -702h-156l17 353l-118 -353h-157z" />
    <glyph glyph-name="wgrave" unicode="&#x1e81;" horiz-adv-x="549" 
d="M47 -2l9 543h143l-19 -280l90 280h113l-18 -280l88 280h145l-201 -543h-132l5 258l-90 -258h-133zM288 572l-101 94l122 44l66 -138h-87z" />
    <glyph glyph-name="Wacute" unicode="&#x1e82;" horiz-adv-x="630" 
d="M344 728l94 118l132 -42l-120 -76h-106zM55 -2l28 702h153l-34 -403l131 403h129l-26 -403l122 403h155l-244 -702h-156l17 353l-118 -353h-157z" />
    <glyph glyph-name="wacute" unicode="&#x1e83;" horiz-adv-x="549" 
d="M278 572l102 138l117 -44l-128 -94h-91zM47 -2l9 543h143l-19 -280l90 280h113l-18 -280l88 280h145l-201 -543h-132l5 258l-90 -258h-133z" />
    <glyph glyph-name="Wdieresis" unicode="&#x1e84;" horiz-adv-x="630" 
d="M270 730l21 110h116l-21 -110h-116zM421 730l21 110h116l-21 -110h-116zM55 -2l28 702h153l-34 -403l131 403h129l-26 -403l122 403h155l-244 -702h-156l17 353l-118 -353h-157z" />
    <glyph glyph-name="wdieresis" unicode="&#x1e85;" horiz-adv-x="549" 
d="M206 574l22 115h113l-22 -115h-113zM349 574l22 115h113l-22 -115h-113zM47 -2l9 543h143l-19 -280l90 280h113l-18 -280l88 280h145l-201 -543h-132l5 258l-90 -258h-133z" />
    <glyph glyph-name="Ygrave" unicode="&#x1ef2;" horiz-adv-x="409" 
d="M77 0l51 261l-48 439h149l9 -247l105 247h152l-218 -439l-51 -261h-149zM236 726l-96 76l135 42l62 -118h-101z" />
    <glyph glyph-name="ygrave" unicode="&#x1ef3;" horiz-adv-x="383" 
d="M67 11l-13 530h144l-13 -299l104 299h145l-284 -671h-143zM202 570l-101 94l122 44l66 -138h-87z" />
    <glyph glyph-name="enspace" unicode="&#x2002;" 
 />
    <glyph glyph-name="emspace" unicode="&#x2003;" horiz-adv-x="1000" 
 />
    <glyph glyph-name="threeperemspace" unicode="&#x2004;" horiz-adv-x="333" 
 />
    <glyph glyph-name="fourperemspace" unicode="&#x2005;" horiz-adv-x="250" 
 />
    <glyph glyph-name="thinspace" unicode="&#x2009;" horiz-adv-x="133" 
 />
    <glyph glyph-name="hairspace" unicode="&#x200a;" horiz-adv-x="75" 
 />
    <glyph glyph-name="endash" unicode="&#x2013;" horiz-adv-x="447" 
d="M22 244l26 137h394l-27 -137h-393z" />
    <glyph glyph-name="emdash" unicode="&#x2014;" horiz-adv-x="671" 
d="M22 244l27 137h617l-26 -137h-618z" />
    <glyph glyph-name="quoteleft" unicode="&#x2018;" horiz-adv-x="219" 
d="M52 395l28 148q15 79 62.5 117.5t127.5 43.5l3 -57q-92 -14 -107 -91h77l-32 -161h-159z" />
    <glyph glyph-name="quoteright" unicode="&#x2019;" horiz-adv-x="219" 
d="M56 391l-3 57q54 8 76.5 32t30.5 59h-77l31 161h160l-29 -148q-28 -153 -189 -161z" />
    <glyph glyph-name="quotesinglbase" unicode="&#x201a;" horiz-adv-x="231" 
d="M-41 -148l-3 57q92 14 107 91h-77l32 161h159l-28 -148q-28 -153 -190 -161z" />
    <glyph glyph-name="quotedblleft" unicode="&#x201c;" horiz-adv-x="410" 
d="M52 395l28 148q30 152 186 161l3 -57q-87 -15 -103 -91h72l-31 -161h-155zM248 395l28 148q30 152 185 161l3 -57q-86 -15 -102 -91h72l-31 -161h-155z" />
    <glyph glyph-name="quotedblright" unicode="&#x201d;" horiz-adv-x="410" 
d="M56 391l-3 57q86 15 102 91h-72l31 161h155l-28 -148q-28 -152 -185 -161zM252 391l-3 57q86 15 102 91h-72l31 161h155l-28 -148q-30 -152 -185 -161z" />
    <glyph glyph-name="quotedblbase" unicode="&#x201e;" horiz-adv-x="428" 
d="M-41 -148l-3 57q87 15 103 91h-73l32 161h155l-28 -148q-30 -152 -186 -161zM155 -148l-3 57q87 15 103 91h-73l32 161h155l-29 -148q-28 -152 -185 -161z" />
    <glyph glyph-name="dagger" unicode="&#x2020;" horiz-adv-x="259" 
d="M75 238l65 262l-78 -9l18 97l74 -10l7 122h103l-40 -122l77 10l-19 -97l-74 9l-37 -262h-96z" />
    <glyph glyph-name="daggerdbl" unicode="&#x2021;" horiz-adv-x="273" 
d="M33 0l40 121l-77 -9l18 97l76 -10l12 151l46 150l-79 -9l18 97l74 -10l8 122h102l-40 -122l77 10l-19 -97l-75 9l-13 -150l-45 -151l79 10l-19 -97l-74 9l-7 -121h-102z" />
    <glyph glyph-name="bullet" unicode="&#x2022;" horiz-adv-x="363" 
d="M221 525q47 0 75.5 -30.5t28.5 -88.5q0 -50 -16.5 -103t-46.5 -83q-37 -37 -88 -37q-47 0 -75 30.5t-28 88.5q0 50 16 103t46 83q37 37 88 37z" />
    <glyph glyph-name="ellipsis" unicode="&#x2026;" horiz-adv-x="685" 
d="M-20 0l32 161h159l-31 -161h-160zM210 0l32 161h160l-32 -161h-160zM440 0l32 161h160l-32 -161h-160z" />
    <glyph glyph-name="perthousand" unicode="&#x2030;" horiz-adv-x="837" 
d="M36 0l237 357l221 343h82l-237 -357l-220 -343h-83zM158 316q-47 0 -73 31t-26 89q0 61 19 132.5t53 105.5q32 32 75 32q47 0 72.5 -30.5t25.5 -88.5q0 -62 -18.5 -133.5t-52.5 -105.5q-33 -32 -75 -32zM165 403q7 0 13 6q14 15 27.5 83.5t13.5 98.5q0 29 -20 29
q-6 0 -13 -7q-14 -14 -27.5 -83t-13.5 -99q0 -28 20 -28zM407 -6q-47 0 -73 30.5t-26 88.5q0 62 19 133.5t53 105.5q32 32 75 32q47 0 73 -31t26 -89q0 -61 -19 -132.5t-53 -105.5q-32 -32 -75 -32zM414 80q6 0 13 7q14 14 27.5 83t13.5 99q0 28 -20 28q-7 0 -13 -6
q-14 -15 -27.5 -83.5t-13.5 -98.5q0 -29 20 -29zM667 -6q-47 0 -72.5 30.5t-25.5 88.5q0 62 19 133.5t53 105.5q32 32 75 32q46 0 72 -31t26 -89q0 -61 -19 -132.5t-53 -105.5q-32 -32 -75 -32zM674 80q6 0 13 7q15 14 28.5 82.5t13.5 99.5q0 28 -20 28q-7 0 -13 -6
q-15 -15 -28.5 -83.5t-13.5 -98.5q0 -29 20 -29z" />
    <glyph glyph-name="guilsinglleft" unicode="&#x2039;" horiz-adv-x="252" 
d="M100 44l-86 216l4 21l170 216l84 -48l-124 -182l54 -182z" />
    <glyph glyph-name="guilsinglright" unicode="&#x203a;" horiz-adv-x="252" 
d="M151 496l86 -216l-4 -21l-170 -216l-84 48l124 182l-54 182z" />
    <glyph glyph-name="Euro" unicode="&#x20ac;" horiz-adv-x="394" 
d="M32 381l20 102h50q38 109 94 165q62 63 146 63q63 0 112 -26l-30 -149q-40 32 -75 32q-32 0 -55 -25q-21 -21 -39 -63h104l-20 -99h-114q-8 -35 -12 -58h115l-20 -100h-105q3 -92 76 -92q29 0 74 19l-28 -141q-41 -19 -83 -19q-87 0 -136 57t-49 172v2h-56l20 102h45
l10 58h-44z" />
    <glyph glyph-name="published" unicode="&#x2117;" horiz-adv-x="510" 
d="M217 555h62q61 0 94.5 -29t33.5 -86q0 -70 -42.5 -118t-114.5 -48h-2l-24 -121h-85zM322 435q0 44 -33 44h-1l-25 -128h3q25 0 40.5 27t15.5 57zM317 712q89 0 143 -65t54 -181q0 -104 -32 -223t-99 -185q-68 -70 -163 -70q-89 0 -143.5 65t-54.5 181q0 104 32 223
t99 185q70 70 164 70zM222 23q77 0 136 59t89 173t30 212q0 100 -43.5 155t-119.5 55t-135 -59t-89 -172.5t-30 -212.5t43.5 -154.5t118.5 -55.5z" />
    <glyph glyph-name="servicemark" unicode="&#x2120;" horiz-adv-x="439" 
d="M117 382q-43 0 -74 22l13 70q33 -24 57 -24q26 0 26 24q0 14 -22 43q-39 50 -39 89q0 44 28 72q27 25 68 25q38 0 67 -17l-13 -69q-29 18 -50 18q-25 0 -25 -24q0 -13 23 -44q38 -48 38 -87q0 -44 -28 -71q-27 -27 -69 -27zM220 385l61 315h69l18 -98l55 98h73l-61 -315
h-70l33 169l-58 -103h-1l-17 103l-32 -169h-70z" />
    <glyph glyph-name="trademark" unicode="&#x2122;" horiz-adv-x="439" 
d="M76 385l47 244h-43l14 71h160l-14 -71h-44l-47 -244h-73zM216 385l61 315h71l19 -97l55 97h74l-61 -315h-71l33 168l-58 -101h-2l-18 101l-32 -168h-71z" />
    <glyph glyph-name="minus" unicode="&#x2212;" horiz-adv-x="408" 
d="M25 283l27 138h367l-27 -138h-367z" />
    <glyph glyph-name="Q.alt" horiz-adv-x="453" 
d="M293 712q82 0 126 -58.5t44 -156.5q0 -83 -24 -192t-69 -188l43 -80l-103 -53l-19 40q-47 -35 -105 -35q-82 0 -126 58t-44 156q0 106 37.5 245.5t104.5 206.5q58 57 135 57zM201 122q16 0 29 13l-39 72l83 43q17 70 29.5 153t12.5 115q0 58 -34 58q-12 0 -26 -12
q-31 -31 -62.5 -174.5t-31.5 -209.5q0 -58 39 -58z" />
    <glyph glyph-name="a.alt" horiz-adv-x="411" 
d="M92 -11q-88 0 -88 137q0 95 31 219.5t81 173.5q32 32 74 32q62 0 90 -73l12 63h146l-105 -541h-146l12 64q-56 -75 -107 -75zM177 122q11 0 19 8q20 21 39 112.5t19 132.5q0 44 -25 44q-11 0 -19 -8q-20 -21 -39 -112.5t-19 -133.5q0 -43 25 -43z" />
    <glyph glyph-name="aacute.alt" horiz-adv-x="411" 
d="M224 578l102 138l117 -44l-128 -94h-91zM92 -11q-88 0 -88 137q0 95 31 219.5t81 173.5q32 32 74 32q62 0 90 -73l12 63h146l-105 -541h-146l12 64q-56 -75 -107 -75zM177 122q11 0 19 8q20 21 39 112.5t19 132.5q0 44 -25 44q-11 0 -19 -8q-20 -21 -39 -112.5
t-19 -133.5q0 -43 25 -43z" />
    <glyph glyph-name="abreve.alt" horiz-adv-x="411" 
d="M92 -11q-88 0 -88 137q0 95 31 219.5t81 173.5q32 32 74 32q62 0 90 -73l12 63h146l-105 -541h-146l12 64q-56 -75 -107 -75zM177 122q11 0 19 8q20 21 39 112.5t19 132.5q0 44 -25 44q-11 0 -19 -8q-20 -21 -39 -112.5t-19 -133.5q0 -43 25 -43zM282 574
q-55 0 -84.5 29.5t-24.5 89.5h78q0 -43 39 -43q38 0 51 43h81q-15 -59 -51.5 -89t-88.5 -30z" />
    <glyph glyph-name="acircumflex.alt" horiz-adv-x="411" 
d="M146 578l104 128h104l53 -128h-82l-36 51l-56 -51h-87zM92 -11q-88 0 -88 137q0 95 31 219.5t81 173.5q32 32 74 32q62 0 90 -73l12 63h146l-105 -541h-146l12 64q-56 -75 -107 -75zM177 122q11 0 19 8q20 21 39 112.5t19 132.5q0 44 -25 44q-11 0 -19 -8
q-20 -21 -39 -112.5t-19 -133.5q0 -43 25 -43z" />
    <glyph glyph-name="adieresis.alt" horiz-adv-x="411" 
d="M152 580l22 115h113l-22 -115h-113zM295 580l22 115h113l-22 -115h-113zM92 -11q-88 0 -88 137q0 95 31 219.5t81 173.5q32 32 74 32q62 0 90 -73l12 63h146l-105 -541h-146l12 64q-56 -75 -107 -75zM177 122q11 0 19 8q20 21 39 112.5t19 132.5q0 44 -25 44
q-11 0 -19 -8q-20 -21 -39 -112.5t-19 -133.5q0 -43 25 -43z" />
    <glyph glyph-name="agrave.alt" horiz-adv-x="411" 
d="M92 -11q-88 0 -88 137q0 95 31 219.5t81 173.5q32 32 74 32q62 0 90 -73l12 63h146l-105 -541h-146l12 64q-56 -75 -107 -75zM177 122q11 0 19 8q20 21 39 112.5t19 132.5q0 44 -25 44q-11 0 -19 -8q-20 -21 -39 -112.5t-19 -133.5q0 -43 25 -43zM234 578l-101 94l122 44
l66 -138h-87z" />
    <glyph glyph-name="amacron.alt" horiz-adv-x="411" 
d="M92 -11q-88 0 -88 137q0 95 31 219.5t81 173.5q32 32 74 32q62 0 90 -73l12 63h146l-105 -541h-146l12 64q-56 -75 -107 -75zM177 122q11 0 19 8q20 21 39 112.5t19 132.5q0 44 -25 44q-11 0 -19 -8q-20 -21 -39 -112.5t-19 -133.5q0 -43 25 -43zM157 581l18 90h247
l-18 -90h-247z" />
    <glyph glyph-name="aogonek.alt" horiz-adv-x="411" 
d="M326 -66l-15 -77q-24 -4 -55 -4q-97 0 -97 60q0 42 55 87h-27l12 64q-56 -75 -107 -75q-88 0 -88 137q0 95 31 219.5t81 173.5q32 32 74 32q62 0 90 -73l12 63h146l-105 -541h-21q-29 -29 -29 -45q0 -18 43 -21zM177 122q11 0 19 8q20 21 39 112.5t19 132.5q0 44 -25 44
q-11 0 -19 -8q-20 -21 -39 -112.5t-19 -133.5q0 -43 25 -43z" />
    <glyph glyph-name="aring.alt" horiz-adv-x="411" 
d="M390 678q0 -41 -28.5 -73t-74.5 -32q-36 0 -60 23t-24 59q0 42 29 74t75 32q36 0 59.5 -23t23.5 -60zM256 658q0 -16 9.5 -27t25.5 -11q20 0 33.5 16t13.5 39q0 17 -9.5 27.5t-26.5 10.5q-20 0 -33 -15.5t-13 -39.5zM92 -11q-88 0 -88 137q0 95 31 219.5t81 173.5
q32 32 74 32q62 0 90 -73l12 63h146l-105 -541h-146l12 64q-56 -75 -107 -75zM177 122q11 0 19 8q20 21 39 112.5t19 132.5q0 44 -25 44q-11 0 -19 -8q-20 -21 -39 -112.5t-19 -133.5q0 -43 25 -43z" />
    <glyph glyph-name="aring.alt2" horiz-adv-x="376" 
d="M156 0l8 46q-41 -55 -94 -55q-39 0 -62 30t-23 84q0 51 17.5 108.5t49.5 89.5q35 35 85 35q39 0 81 -25l3 15q4 24 4 33q0 56 -67 56q-42 0 -97 -24l26 136q40 14 78 18q-9 17 -9 39q0 41 28.5 73t75.5 32q36 0 59.5 -22.5t23.5 -59.5q0 -52 -39 -82q68 -38 68 -132
q0 -34 -9 -78l-62 -317h-145zM244 551q20 0 33.5 15.5t13.5 39.5q0 16 -9.5 27t-26.5 11q-20 0 -33.5 -15.5t-13.5 -39.5q0 -17 9.5 -27.5t26.5 -10.5zM144 95q32 0 41 46l16 84q-19 12 -32 12q-12 0 -21 -9q-13 -14 -21 -47t-8 -51q0 -35 25 -35z" />
    <glyph glyph-name="aringacute.alt" horiz-adv-x="411" 
d="M267 780l91 108l122 -37l-117 -71h-96zM390 678q0 -41 -28.5 -73t-74.5 -32q-36 0 -60 23t-24 59q0 42 29 74t75 32q36 0 59.5 -23t23.5 -60zM256 658q0 -16 9.5 -27t25.5 -11q20 0 33.5 16t13.5 39q0 17 -9.5 27.5t-26.5 10.5q-20 0 -33 -15.5t-13 -39.5zM92 -11
q-88 0 -88 137q0 95 31 219.5t81 173.5q32 32 74 32q62 0 90 -73l12 63h146l-105 -541h-146l12 64q-56 -75 -107 -75zM177 122q11 0 19 8q20 21 39 112.5t19 132.5q0 44 -25 44q-11 0 -19 -8q-20 -21 -39 -112.5t-19 -133.5q0 -43 25 -43z" />
    <glyph glyph-name="aringacute.alt2" horiz-adv-x="376" 
d="M220 710l91 108l122 -37l-117 -71h-96zM156 0l8 46q-41 -55 -94 -55q-39 0 -62 30t-23 84q0 51 17.5 108.5t49.5 89.5q35 35 85 35q39 0 81 -25l3 15q4 24 4 33q0 56 -67 56q-42 0 -97 -24l26 136q40 14 78 18q-9 17 -9 39q0 41 28.5 73t75.5 32q36 0 59.5 -22.5
t23.5 -59.5q0 -52 -39 -82q68 -38 68 -132q0 -34 -9 -78l-62 -317h-145zM244 551q20 0 33.5 15.5t13.5 39.5q0 16 -9.5 27t-26.5 11q-20 0 -33.5 -15.5t-13.5 -39.5q0 -17 9.5 -27.5t26.5 -10.5zM144 95q32 0 41 46l16 84q-19 12 -32 12q-12 0 -21 -9q-13 -14 -21 -47
t-8 -51q0 -35 25 -35z" />
    <glyph glyph-name="atilde.alt" horiz-adv-x="411" 
d="M92 -11q-88 0 -88 137q0 95 31 219.5t81 173.5q32 32 74 32q62 0 90 -73l12 63h146l-105 -541h-146l12 64q-56 -75 -107 -75zM177 122q11 0 19 8q20 21 39 112.5t19 132.5q0 44 -25 44q-11 0 -19 -8q-20 -21 -39 -112.5t-19 -133.5q0 -43 25 -43zM374 704l69 -14
q-31 -114 -94 -114q-17 0 -59 17q-34 15 -46 15t-20 -8t-16 -28l-69 14q31 114 94 114q19 0 59 -17q35 -15 46 -15q12 0 20 8t16 28z" />
    <glyph glyph-name="three.alt" horiz-adv-x="353" 
d="M108 -11q-80 0 -140 35l27 141q52 -35 104 -35q36 0 58 24t22 64q0 72 -105 82l24 121q68 1 103 25.5t35 66.5q0 57 -67 57q-36 0 -91 -20l27 140q54 21 112 21q81 0 127 -42t46 -120q-1 -71 -38 -122.5t-105 -75.5q79 -47 79 -140q0 -99 -60 -160.5t-158 -61.5z" />
    <glyph glyph-name="registered.alt" horiz-adv-x="510" 
d="M317 712q89 0 143 -65t54 -181q0 -104 -32 -223t-99 -185q-68 -70 -163 -70q-89 0 -143.5 65t-54.5 181q0 104 32 223t99 185q70 70 164 70zM222 23q77 0 136 59t89 173t30 212q0 100 -43.5 155t-119.5 55t-135 -59t-89 -172.5t-30 -212.5t43.5 -154.5t118.5 -55.5z
M240 285l-25 -131h-86l78 402h66q70 0 102 -32q29 -29 29 -80q0 -67 -43 -110q-13 -13 -31 -23l25 -157h-91l-17 131h-7zM254 358h7q19 0 32 13q23 23 23 67q0 22 -10 32q-9 9 -26 9h-2z" />
    <glyph glyph-name="NUL" horiz-adv-x="0" 
 />
    <glyph glyph-name="hfjslug" horiz-adv-x="694" 
d="M255 276h8l11 34h1l11 -34h8l14 47h-8l-10 -35h-1l-11 35h-7l-11 -35h-1l-10 35h-8zM321 388q19 0 29 24h1l12 -24l12 6l-17 32q6 14 13 39l-13 3q-4 -18 -8 -30h-1l-16 31q23 21 23 42q0 31 -27 31q-12 0 -20 -9t-8 -22t14 -39q-23 -18 -23 -47q0 -16 8 -26.5t21 -10.5z
M50 -200v303q14 0 23 9.5t9 22.5t-9.5 22.5t-22.5 9.5v554h100l30 79h334l29 -79h101v-921h-208l-8 14h-163l-8 -14h-207zM523 277h8v12l8 8l15 -20h10l-20 26l18 20h-10l-20 -24h-1v24h-8v-46zM193 277h34v7h-26v13h23v7h-23v12h26v7h-34v-46zM184 391h15v79h47v-79h15v172
h-15v-79h-47v79h-15v-172zM132 277h8v32l25 -32h7v46h-8v-32l-25 32h-7v-46zM400 391h15v78h38v14h-38v66h43v14h-58v-172zM468 277h8v15h12l10 -15h9l-12 17q10 4 10 14q0 15 -17 15h-20v-46zM366 277h8v17l18 29h-9l-13 -22l-13 22h-9l18 -29v-17zM481 390q31 0 31 36v137
h-16v-137q0 -22 -16 -22q-8 0 -20 5v-15q10 -4 21 -4zM476 299v17h11q10 0 10 -8q0 -9 -10 -9h-11zM322 402q-16 0 -16 25q0 19 16 35l20 -39q-8 -21 -20 -21zM327 479q-12 22 -12 32q0 19 14 19q13 0 13 -19q0 -15 -15 -32zM426 283q-16 0 -16 17q0 6 4.5 11.5t11.5 5.5
t11.5 -5.5t4.5 -11.5q0 -17 -16 -17zM426 276q10 0 17 7t7 17q0 9 -7 16.5t-17 7.5t-17 -7.5t-7 -16.5q0 -10 7 -17t17 -7z" />
    <glyph glyph-name="i.dot" horiz-adv-x="200" 
d="M-25 0l105 541h145l-105 -541h-145zM87 582l25 128h147l-25 -128h-147z" />
    <glyph glyph-name="caron.alt" 
d="M244 563l37 147h87v-1l-67 -146h-57z" />
    <glyph glyph-name="acute.cap" 
d="M236 728l94 118l132 -42l-120 -76h-106z" />
    <glyph glyph-name="hungarumlaut.cap" 
d="M324 728l49 62l-90 -62h-95l94 118l106 -37l29 37l115 -40l-113 -78h-95z" />
    <glyph glyph-name="grave.cap" 
d="M327 728l-96 76l135 42l62 -118h-101z" />
    <glyph glyph-name="circumflex.cap" 
d="M208 728l95 111h113l53 -111h-88l-33 41l-48 -41h-92z" />
    <glyph glyph-name="caron.cap" 
d="M490 839l-95 -111h-113l-53 111h89l33 -41l48 41h91z" />
    <glyph glyph-name="breve.cap" 
d="M342 724q-54 0 -83.5 27.5t-21.5 80.5h78q0 -33 37 -33q34 0 47 33h81q-26 -108 -138 -108z" />
    <glyph glyph-name="tilde.cap" 
d="M267 722l-70 15q33 116 93 116q20 0 63 -18q35 -15 45 -15q20 0 35 36l71 -14q-18 -60 -40.5 -88t-53.5 -28q-20 0 -61 17q-36 15 -47 15t-18.5 -7.5t-16.5 -28.5z" />
    <glyph glyph-name="macron.cap" 
d="M210 731l18 91h258l-18 -91h-258z" />
    <glyph glyph-name="dieresis.cap" 
d="M205 730l21 110h116l-21 -110h-116zM356 730l21 110h116l-21 -110h-116z" />
    <glyph glyph-name="dotaccent.cap" 
d="M278 730l21 110h121l-21 -110h-121z" />
    <glyph glyph-name="ring.cap" 
d="M364 905q37 0 63 -22.5t26 -57.5q0 -43 -31 -72t-77 -29q-37 0 -62.5 22.5t-25.5 56.5q0 44 30.5 73t76.5 29zM350 771q21 0 35 14t14 35q0 17 -11 27.5t-28 10.5q-21 0 -35 -14.5t-14 -34.5q0 -17 11 -27.5t28 -10.5z" />
    </font>
</defs>
</svg>
